<?xml version="1.0" encoding="UTF-8" standalone="no"?><!-- Generator: Gravit.io --><svg xmlns="http://www.w3.org/2000/svg" xmlns:xlink="http://www.w3.org/1999/xlink" style="isolation:isolate" viewBox="10.717 -11.601 561.283 515.333" width="561.283pt" height="515.333pt"><g><path d=" M 14.244 211.786 C -4.025 321.641 47.099 454.134 204.737 503.016 C 207.551 503.508 210.154 503.732 212.593 503.732 C 230.931 503.732 243.548 490.7 243.548 474.623 C 241.273 462.912 252.53 415.463 221.973 421.845 C 162.9 433.847 155.818 402.341 146.813 385.861 C 172.28 417.075 210.552 416.292 239.421 404.2 C 255.438 397.482 247.066 380.375 254.664 374.128 C 266.296 364.589 260.386 346.295 245.119 344.705 C 190.854 338.995 140.598 322.29 140.598 239.418 C 140.598 190.872 175.892 186.528 166.16 166.219 C 165.808 165.48 158.35 149.335 165.104 124.816 C 198.381 130.683 213.695 153.478 229.665 149.38 C 269.227 139.08 312.776 139.08 352.314 149.38 C 368.824 153.612 380.619 131.444 416.523 124.682 C 426.865 161.718 405.431 170.764 418.938 184.625 C 433.759 199.851 441.287 218.28 441.287 239.418 C 441.287 364.007 330.669 328.023 321.664 356.304 C 319.6 362.753 321.781 369.716 327.174 374.038 C 341.48 385.525 339.604 415.015 338.079 438.728 C 336.508 463.315 335.148 484.52 349.383 496.477 C 354.401 500.732 363.336 505.277 379.494 502.142 C 535.068 454.425 586.566 322.514 568.58 212.906 C 519.426 -86.429 63.772 -86.071 14.244 211.786 Z  M 208.184 457.605 L 208.278 468.913 C 196.013 464.86 184.475 460.18 173.687 454.963 C 183.654 457.403 195.098 458.456 208.184 457.605 Z  M 216.861 374.755 C 216.744 375.337 216.626 375.941 216.509 376.546 C 196.505 382.189 181.121 376.568 170.615 359.707 C 170.615 359.685 170.615 359.685 170.592 359.663 C 186.539 367.813 202.978 372.202 216.861 374.755 Z  M 291.341 22.306 C 568.837 22.306 631.428 386.555 372.693 468.823 C 371.802 462.173 372.623 449.633 373.185 440.788 C 374.546 419.494 376.14 394.683 368.19 373.949 C 487.509 350.236 497.476 225.132 451.535 169.398 C 457.234 148.081 454.936 97.991 434.44 91.855 C 429.609 90.4 403.836 85.048 353.838 115.076 C 313.01 105.761 268.946 105.738 228.117 115.076 C 203.165 100.14 146.93 75.845 136.142 101.64 C 123.619 131.69 126.598 155.986 130.326 169.488 C 89.545 218.84 101.763 301.466 142.849 340.249 C 119.562 329.613 87.481 325.985 80.563 347.28 C 72.989 370.5 101.951 367.679 119.938 410.067 C 121.65 415.351 124.815 421.554 129.67 427.712 C -30.055 303.101 47.005 22.306 291.341 22.306 Z " fill="rgb(0,0,0)"/><g><path d=" M 290.967 8 C 145.758 8 28 117.714 28 253.057 C 28 361.307 103.35 453.143 207.892 485.575 C 221.042 487.833 225.842 480.266 225.842 473.768 C 225.842 467.94 225.612 452.533 225.48 432.091 C 152.333 446.888 136.882 399.231 136.882 399.231 C 124.948 370.918 107.689 363.382 107.689 363.382 C 83.789 348.188 109.464 348.493 109.464 348.493 C 135.863 350.232 149.736 373.755 149.736 373.755 C 173.209 411.191 211.311 400.391 226.302 394.106 C 228.669 378.271 235.474 367.47 243.003 361.338 C 184.617 355.144 123.206 334.123 123.206 240.243 C 123.206 213.486 133.463 191.61 150.295 174.463 C 147.566 168.27 138.559 143.343 152.859 109.629 C 152.859 109.629 174.951 103.039 225.184 134.739 C 246.159 129.308 268.645 126.593 291.033 126.501 C 313.355 126.623 335.874 129.308 356.882 134.77 C 407.082 103.07 429.141 109.66 429.141 109.66 C 443.474 143.404 434.467 168.3 431.771 174.494 C 448.636 191.64 458.794 213.516 458.794 240.274 C 458.794 334.397 397.318 355.114 338.735 361.185 C 348.17 368.752 356.586 383.702 356.586 406.554 C 356.586 439.322 356.257 465.743 356.257 473.768 C 356.257 480.327 360.991 487.955 374.338 485.544 C 478.716 453.082 554 361.277 554 253.057 C 554 117.714 436.242 8 290.967 8 Z " fill="rgb(188,107,199)"/></g></g></svg>