<?xml version="1.0" encoding="UTF-8" standalone="no"?>
<!-- Generator: Gravit.io -->
<svg xmlns="http://www.w3.org/2000/svg" xmlns:xlink="http://www.w3.org/1999/xlink" style="isolation:isolate" viewBox="168 61 320.159 311" width="320.159pt" height="311pt"><g><g><path d=" M 468.827 157.964 C 468.771 157.981 468.716 158.172 468.716 158.275 C 468.705 158.968 468.694 160.803 468.694 162.05 C 468.694 162.085 468.727 162.154 468.76 162.154 C 468.927 162.171 469.326 162.188 469.67 162.188 C 470.148 162.188 470.425 162.085 470.581 161.981 C 470.98 161.669 471.169 160.994 471.169 160.249 C 471.169 158.57 470.414 157.929 469.293 157.929 C 469.215 157.912 468.993 157.912 468.827 157.964 L 468.827 157.964 Z  M 471.69 165.703 C 471.69 163.989 470.88 163.037 469.415 163.037 C 469.348 163.037 468.882 163.02 468.771 163.054 C 468.738 163.072 468.694 163.106 468.694 163.158 C 468.694 164.387 468.682 166.344 468.716 167.106 C 468.738 167.435 468.893 167.902 469.082 168.041 C 469.282 168.214 469.737 168.248 470.048 168.248 C 470.924 168.248 471.69 167.487 471.69 165.703 L 471.69 165.703 Z  M 466.563 157.012 C 466.674 157.012 467.007 157.064 467.861 157.064 C 468.671 157.064 469.315 157.029 470.103 157.029 C 471.069 157.029 472.401 157.566 472.401 159.817 C 472.401 160.925 471.901 161.808 471.246 162.241 C 471.213 162.258 471.213 162.292 471.246 162.31 C 472.179 162.673 473 163.574 473 165.27 C 473 166.933 472.334 167.989 471.368 168.647 C 470.78 169.045 470.048 169.183 469.304 169.183 C 468.738 169.183 467.217 169.079 466.374 169.114 C 466.285 169.062 466.452 168.439 466.529 168.335 C 466.729 168.318 466.884 168.3 467.095 168.196 C 467.395 168.075 467.428 167.937 467.473 167.227 C 467.495 166.621 467.495 164.474 467.495 162.95 C 467.495 160.855 467.506 159.436 467.495 158.743 C 467.484 158.207 467.362 158.033 467.118 157.929 C 466.929 157.878 466.618 157.808 466.363 157.756 C 466.307 157.67 466.496 157.081 466.563 157.012 Z  M 460.159 167.781 C 460.425 168.11 460.947 168.248 461.413 168.248 C 462.012 168.248 462.611 168.075 463.189 167.261 C 463.777 166.43 464.187 165.149 464.187 163.106 C 464.187 161.15 463.71 159.557 462.734 158.622 C 462.179 158.085 461.468 157.86 460.647 157.86 C 460.403 157.86 460.17 157.878 460.025 157.981 C 459.992 158.016 459.914 158.172 459.914 158.258 C 459.892 158.605 459.892 161.271 459.892 162.829 C 459.892 164.439 459.892 166.69 459.914 166.95 C 459.914 167.21 459.992 167.608 460.159 167.781 L 460.159 167.781 Z  M 457.639 157.012 C 457.85 157.012 458.66 157.064 459.049 157.064 C 459.748 157.064 460.247 157.012 461.568 157.012 C 462.678 157.012 463.61 157.479 464.276 158.362 C 465.086 159.453 465.508 160.959 465.508 162.794 C 465.508 165.409 464.742 166.915 463.977 167.781 C 463.211 168.664 462.212 169.183 460.791 169.183 C 460.037 169.183 458.738 169.149 457.661 169.131 L 457.65 169.131 C 457.595 168.976 457.739 168.37 457.828 168.352 C 458.116 168.3 458.194 168.283 458.338 168.197 C 458.571 168.058 458.616 167.867 458.649 167.227 C 458.682 166.032 458.671 164.595 458.671 162.968 C 458.671 161.808 458.682 159.539 458.66 158.812 C 458.627 158.206 458.461 158.05 458.127 157.947 C 457.961 157.895 457.739 157.825 457.428 157.774 C 457.384 157.652 457.584 157.116 457.639 157.012 L 457.639 157.012 Z " fill-rule="evenodd" fill="rgb(142,113,78)"/><path d=" M 445.135 168.459 C 444.858 168.407 444.658 168.338 444.414 168.165 C 444.381 168.131 444.325 167.958 444.325 167.888 C 444.303 167.282 444.303 165.551 444.303 164.391 C 444.303 163.456 444.203 162.642 443.948 162.071 C 443.648 161.413 443.215 161.032 442.66 161.032 C 442.172 161.032 441.517 161.551 440.973 162.279 C 440.962 162.296 440.874 162.417 440.885 162.227 C 440.885 162.036 440.907 161.655 440.918 161.395 C 440.929 161.153 440.84 161.032 440.84 161.032 C 440.485 161.309 439.486 161.673 439.12 161.724 C 438.854 161.811 438.787 162.209 439.065 162.348 L 439.076 162.348 C 439.375 162.486 439.575 162.642 439.73 162.798 C 439.841 162.937 439.83 163.127 439.83 163.283 C 439.841 164.581 439.841 166.572 439.808 167.663 C 439.797 168.096 439.719 168.252 439.519 168.321 L 439.542 168.304 C 439.386 168.356 439.264 168.407 439.075 168.442 C 439.009 168.546 439.009 169.1 439.075 169.221 C 439.198 169.221 439.841 169.169 440.374 169.169 C 441.107 169.169 441.484 169.221 441.673 169.221 C 441.75 169.083 441.773 168.563 441.728 168.442 C 441.517 168.425 441.362 168.39 441.218 168.321 C 441.018 168.252 440.962 168.096 440.951 167.732 C 440.929 166.815 440.929 164.876 440.929 163.56 C 440.929 163.196 440.996 163.023 441.062 162.919 C 441.317 162.573 441.728 162.331 442.094 162.331 C 442.45 162.331 442.683 162.504 442.86 162.729 C 443.104 163.04 443.182 163.491 443.215 163.819 C 443.271 164.564 443.249 166.036 443.249 167.317 C 443.249 168.009 443.215 168.183 443.049 168.269 C 442.971 168.321 442.771 168.39 442.538 168.425 C 442.461 168.546 442.483 169.083 442.538 169.204 C 442.86 169.204 443.238 169.152 443.793 169.152 C 444.481 169.152 444.925 169.204 445.102 169.204 C 445.158 169.1 445.18 168.598 445.135 168.459 L 445.135 168.459 Z  M 448.21 161.846 C 447.622 161.846 447.255 162.556 447.255 163.664 C 447.255 164.789 447.577 166.088 448.487 166.088 C 448.643 166.088 448.931 165.984 449.064 165.741 C 449.275 165.43 449.42 164.806 449.42 164.148 C 449.42 162.711 448.965 161.846 448.21 161.846 L 448.21 161.846 Z  M 448.132 169.498 C 447.91 169.498 447.755 169.602 447.655 169.689 C 447.189 170.156 446.978 170.606 446.978 171.143 C 446.978 171.645 447.1 172.043 447.366 172.39 C 447.688 172.823 448.132 173.03 448.698 173.03 C 449.83 173.03 450.33 172.078 450.33 171.143 C 450.33 170.485 450.119 170.052 449.686 169.81 C 449.375 169.602 448.809 169.498 448.132 169.498 L 448.132 169.498 Z  M 448.21 174 C 447.533 174 447.044 173.775 446.623 173.273 C 446.212 172.788 446.035 172.061 446.035 171.559 C 446.035 171.42 446.057 171.039 446.257 170.693 C 446.378 170.485 446.645 170.087 447.278 169.412 C 447.3 169.395 447.311 169.377 447.311 169.342 C 447.311 169.308 447.289 169.273 447.266 169.256 C 446.745 168.944 446.589 168.442 446.545 168.165 L 446.545 168.131 C 446.534 168.027 446.512 167.923 446.612 167.819 C 446.689 167.732 446.8 167.628 446.922 167.507 C 447.111 167.334 447.311 167.144 447.433 166.988 C 447.455 166.953 447.455 166.919 447.455 166.884 C 447.455 166.849 447.433 166.815 447.411 166.798 C 446.634 166.399 446.245 165.499 446.245 164.148 C 446.245 163.265 446.501 162.469 446.956 161.967 C 447.266 161.586 448.043 161.119 448.554 161.119 L 448.587 161.119 C 449.109 161.136 449.397 161.309 449.808 161.534 C 450.03 161.655 450.241 161.707 450.53 161.707 C 450.962 161.707 451.151 161.499 451.306 161.257 C 451.318 161.292 451.34 161.378 451.351 161.603 C 451.362 161.828 451.318 162.157 451.207 162.4 C 451.118 162.59 450.918 162.729 450.718 162.729 L 450.663 162.729 C 450.463 162.694 450.374 162.659 450.374 162.659 L 450.33 162.694 C 450.319 162.729 450.33 162.763 450.341 162.815 L 450.352 162.85 C 450.374 163.006 450.419 163.473 450.419 163.595 C 450.419 165.014 450.052 165.637 449.664 166.105 C 449.286 166.538 448.854 166.815 448.365 166.884 C 448.354 166.884 448.31 166.884 448.21 166.901 C 448.154 166.901 448.077 166.919 448.066 166.919 L 448.054 166.919 C 447.966 166.953 447.744 167.126 447.744 167.421 C 447.744 167.68 447.844 167.992 448.321 168.044 C 448.421 168.061 448.521 168.061 448.632 168.079 C 449.264 168.148 450.052 168.234 450.419 168.425 C 450.929 168.719 451.251 169.429 451.251 170.277 C 451.251 171.559 450.663 172.753 449.686 173.498 C 449.209 173.827 448.731 174 448.21 174 L 448.21 174 Z  M 454.536 161.932 C 454.303 161.932 454.092 162.019 453.937 162.192 C 453.504 162.607 453.282 163.439 453.282 164.65 C 453.282 166.919 454.015 168.512 455.058 168.512 C 455.369 168.512 455.613 168.373 455.824 168.096 C 456.145 167.68 456.312 166.849 456.312 165.689 C 456.312 163.439 455.591 161.932 454.536 161.932 L 454.536 161.932 Z  M 454.736 169.343 C 452.849 169.343 452.172 167.178 452.172 165.153 C 452.172 163.733 452.538 162.642 453.271 161.863 C 453.793 161.361 454.414 161.084 454.969 161.084 C 456.412 161.084 457.422 162.694 457.422 165.014 C 457.422 166.59 457.022 167.836 456.257 168.598 C 455.89 168.979 455.258 169.343 454.736 169.343 L 454.736 169.343 L 454.736 169.343 Z  M 434.958 161.932 C 434.725 161.932 434.514 162.019 434.358 162.192 C 433.926 162.607 433.704 163.439 433.704 164.65 C 433.704 166.919 434.436 168.512 435.48 168.512 C 435.79 168.512 436.034 168.373 436.245 168.096 C 436.567 167.68 436.734 166.849 436.734 165.689 C 436.734 163.439 436.023 161.932 434.958 161.932 Z  M 435.158 169.343 C 433.271 169.343 432.594 167.178 432.594 165.153 C 432.594 163.733 432.96 162.642 433.693 161.863 C 434.214 161.361 434.836 161.084 435.391 161.084 C 436.834 161.084 437.844 162.694 437.844 165.014 C 437.844 166.59 437.444 167.836 436.678 168.598 C 436.323 168.979 435.69 169.343 435.158 169.343 Z  M 422.472 169.169 C 422.449 169.118 422.427 168.962 422.438 168.771 C 422.438 168.633 422.461 168.546 422.472 168.512 C 422.705 168.459 422.827 168.407 422.96 168.356 C 423.182 168.269 423.271 168.079 423.282 167.646 C 423.315 166.607 423.315 164.633 423.304 163.265 L 423.304 163.231 C 423.304 163.075 423.304 162.884 423.182 162.746 C 423.004 162.573 422.794 162.417 422.516 162.296 C 422.416 162.244 422.35 162.157 422.361 162.054 C 422.361 161.95 422.427 161.828 422.572 161.794 C 422.938 161.742 423.892 161.378 424.27 161.119 C 424.292 161.153 424.325 161.257 424.325 161.396 L 424.314 161.586 C 424.303 161.776 424.292 162.002 424.292 162.227 C 424.292 162.296 424.336 162.348 424.381 162.348 C 424.403 162.348 424.425 162.331 424.447 162.313 C 425.158 161.447 425.801 161.136 426.134 161.136 C 426.678 161.136 427.1 161.534 427.422 162.365 C 427.444 162.417 427.466 162.434 427.499 162.434 C 427.522 162.434 427.555 162.417 427.566 162.382 C 428.221 161.603 428.876 161.136 429.308 161.136 C 430.341 161.136 430.951 162.331 430.951 164.356 C 430.951 164.928 430.951 165.672 430.94 166.347 C 430.94 166.953 430.929 167.507 430.929 167.906 C 430.929 167.992 431.007 168.269 431.129 168.321 C 431.284 168.442 431.495 168.494 431.772 168.563 L 431.784 168.563 C 431.806 168.685 431.761 169.135 431.717 169.221 C 431.65 169.221 431.55 169.221 431.44 169.204 C 431.159 169.181 430.877 169.17 430.596 169.169 C 429.908 169.169 429.553 169.187 429.209 169.221 C 429.187 169.083 429.175 168.667 429.209 168.563 C 429.408 168.512 429.508 168.459 429.63 168.408 C 429.852 168.304 429.908 168.148 429.919 167.698 C 429.919 167.369 429.963 164.564 429.897 163.889 C 429.83 163.196 429.497 162.382 428.765 162.382 C 428.487 162.382 428.054 162.556 427.633 163.058 C 427.611 163.092 427.588 163.179 427.588 163.231 L 427.588 163.248 C 427.633 163.612 427.633 164.027 427.633 164.668 L 427.633 165.793 C 427.633 166.572 427.621 167.3 427.633 167.853 C 427.633 168.234 427.777 168.321 427.899 168.39 C 427.966 168.407 428.01 168.425 428.065 168.442 C 428.165 168.477 428.265 168.512 428.421 168.563 C 428.443 168.633 428.443 168.858 428.41 169.048 C 428.398 169.152 428.376 169.204 428.365 169.221 C 427.988 169.204 427.599 169.187 427.033 169.187 C 426.867 169.187 426.578 169.204 426.334 169.204 C 426.134 169.204 425.946 169.221 425.835 169.221 C 425.824 169.187 425.801 169.066 425.801 168.875 C 425.801 168.719 425.824 168.598 425.846 168.563 C 425.901 168.546 425.946 168.529 426.001 168.529 C 426.134 168.494 426.245 168.459 426.356 168.425 C 426.545 168.338 426.612 168.183 426.623 167.802 C 426.656 166.936 426.689 164.46 426.612 163.837 C 426.478 162.833 426.112 162.331 425.524 162.331 C 425.18 162.331 424.747 162.59 424.392 163.006 C 424.336 163.075 424.292 163.248 424.292 163.404 L 424.292 164.425 C 424.292 165.672 424.292 167.23 424.303 167.906 C 424.314 168.113 424.358 168.356 424.614 168.442 C 424.669 168.459 424.758 168.494 424.869 168.512 L 425.069 168.563 C 425.091 168.667 425.08 169.083 425.035 169.221 C 424.924 169.221 424.791 169.204 424.636 169.204 C 424.403 169.187 424.103 169.169 423.77 169.169 C 423.382 169.169 423.104 169.187 422.882 169.204 C 422.727 169.169 422.605 169.169 422.472 169.169 L 422.472 169.169 Z " fill-rule="evenodd" fill="rgb(68,45,34)"/><path d=" M 441.08 159.663 L 440.625 159.421 C 440.625 159.421 440.68 155.802 439.848 155.543 C 439.293 154.538 439.937 112.951 441.934 155.404 C 441.934 155.404 441.246 155.94 441.124 156.858 C 440.991 157.759 441.08 159.663 441.08 159.663 L 441.08 159.663 Z " fill-rule="evenodd" fill="rgb(255,255,255)"/><path d=" M 441.08 159.663 L 440.625 159.421 C 440.625 159.421 440.68 155.802 439.848 155.543 C 439.293 154.538 439.937 112.951 441.934 155.404 C 441.934 155.404 441.246 155.94 441.124 156.858 C 440.991 157.759 441.08 159.663 441.08 159.663 L 441.08 159.663 Z " fill-rule="evenodd" fill="rgb(166,163,133)"/><path d=" M 441.324 156.166 C 441.324 156.166 445.308 152.08 444.376 143.578 C 443.477 137.398 441.357 135.372 441.124 134.593 C 440.869 134.039 440.625 133.069 440.625 133.069 L 440.791 150.262 C 440.791 150.279 440.447 155.525 441.324 156.166" fill-rule="evenodd" fill="rgb(255,255,255)"/><path d=" M 441.324 156.166 C 441.324 156.166 445.308 152.08 444.376 143.578 C 443.477 137.398 441.357 135.372 441.124 134.593 C 440.869 134.039 440.625 133.069 440.625 133.069 L 440.791 150.262 C 440.791 150.279 440.447 155.525 441.324 156.166" fill-rule="evenodd" fill="rgb(73,157,74)"/><path d=" M 440.392 156.391 C 440.392 156.391 436.651 152.409 436.873 145.397 C 437.084 138.385 439.726 134.939 440.236 134.316 C 440.569 133.762 440.58 133.554 440.602 133 C 440.836 133.779 440.791 144.652 440.824 145.933 C 440.924 150.868 440.647 155.456 440.392 156.391 Z " fill-rule="evenodd" fill="rgb(255,255,255)"/><path d=" M 440.392 156.391 C 440.392 156.391 436.651 152.409 436.873 145.397 C 437.084 138.385 439.726 134.939 440.236 134.316 C 440.569 133.762 440.58 133.554 440.602 133 C 440.836 133.779 440.791 144.652 440.824 145.933 C 440.924 150.868 440.647 155.456 440.392 156.391 Z " fill-rule="evenodd" fill="rgb(88,170,80)"/></g><g><path d=" M 434 305.5 L 400 305.5 L 403 339.5 L 417 343.5 L 431 339.5 L 434 305.5 L 434 305.5 Z " fill="rgb(230,81,0)"/><path d=" M 417 308.5 L 417 340.4 L 428.2 337.2 L 430.7 308.5 L 417 308.5 Z " fill="rgb(255,109,0)"/><path d=" M 417 325.5 L 417 321.5 L 425.6 321.5 L 424.9 333 L 417 335.6 L 417 331.4 L 421.1 330 L 421.4 325.5 L 417 325.5 Z  M 425.9 317.5 L 426.2 313.5 L 417 313.5 L 417 317.5 L 425.9 317.5 Z " fill="rgb(255,255,255)"/><path d=" M 417 331.4 L 417 335.6 L 409.1 333 L 408.7 327.5 L 412.7 327.5 L 412.9 330 L 417 331.4 Z  M 412.1 317.5 L 417 317.5 L 417 313.5 L 407.9 313.5 L 408.6 325.5 L 417 325.5 L 417 321.5 L 412.4 321.5 L 412.1 317.5 Z " fill="rgb(238,238,238)"/></g><mask id="_mask_smsJH97ycsraMHe5fHJbA5B6qnh1N5xT" x="-200%" y="-200%" width="400%" height="400%"><rect x="-200%" y="-200%" width="400%" height="400%" style="fill:white;"/><path d=" M 456 253 C 445.507 253 437 261.64 437 272.298 C 437 281.34 443.131 288.906 451.396 291 C 451.307 290.739 451.25 290.437 451.25 290.062 L 451.25 286.764 C 450.479 286.764 449.187 286.764 448.862 286.764 C 447.562 286.764 446.407 286.197 445.846 285.142 C 445.224 283.969 445.116 282.176 443.574 281.079 C 443.116 280.714 443.465 280.298 443.992 280.354 C 444.966 280.634 445.773 281.313 446.533 282.319 C 447.29 283.328 447.646 283.556 449.06 283.556 C 449.746 283.556 450.772 283.516 451.738 283.361 C 452.257 282.022 453.155 280.788 454.252 280.206 C 447.925 279.545 444.906 276.348 444.906 272.008 C 444.906 270.139 445.689 268.332 447.021 266.809 C 446.584 265.297 446.034 262.215 447.189 261.041 C 450.036 261.041 451.757 262.916 452.17 263.422 C 453.589 262.929 455.147 262.649 456.784 262.649 C 458.424 262.649 459.988 262.929 461.41 263.425 C 461.819 262.922 463.541 261.041 466.395 261.041 C 467.554 262.216 466.998 265.312 466.556 266.82 C 467.88 268.34 468.659 270.143 468.659 272.008 C 468.659 276.345 465.644 279.54 459.327 280.205 C 461.065 281.126 462.333 283.715 462.333 285.666 L 462.333 290.062 C 462.333 290.23 462.297 290.35 462.278 290.493 C 469.682 287.858 475 280.718 475 272.298 C 475 261.64 466.493 253 456 253 Z " fill="black" stroke="none"/></mask><path d=" M 456 253 C 445.507 253 437 261.64 437 272.298 C 437 281.34 443.131 288.906 451.396 291 C 451.307 290.739 451.25 290.437 451.25 290.062 L 451.25 286.764 C 450.479 286.764 449.187 286.764 448.862 286.764 C 447.562 286.764 446.407 286.197 445.846 285.142 C 445.224 283.969 445.116 282.176 443.574 281.079 C 443.116 280.714 443.465 280.298 443.992 280.354 C 444.966 280.634 445.773 281.313 446.533 282.319 C 447.29 283.328 447.646 283.556 449.06 283.556 C 449.746 283.556 450.772 283.516 451.738 283.361 C 452.257 282.022 453.155 280.788 454.252 280.206 C 447.925 279.545 444.906 276.348 444.906 272.008 C 444.906 270.139 445.689 268.332 447.021 266.809 C 446.584 265.297 446.034 262.215 447.189 261.041 C 450.036 261.041 451.757 262.916 452.17 263.422 C 453.589 262.929 455.147 262.649 456.784 262.649 C 458.424 262.649 459.988 262.929 461.41 263.425 C 461.819 262.922 463.541 261.041 466.395 261.041 C 467.554 262.216 466.998 265.312 466.556 266.82 C 467.88 268.34 468.659 270.143 468.659 272.008 C 468.659 276.345 465.644 279.54 459.327 280.205 C 461.065 281.126 462.333 283.715 462.333 285.666 L 462.333 290.062 C 462.333 290.23 462.297 290.35 462.278 290.493 C 469.682 287.858 475 280.718 475 272.298 C 475 261.64 466.493 253 456 253 Z " fill="rgb(255,255,255)" mask="url(#_mask_smsJH97ycsraMHe5fHJbA5B6qnh1N5xT)" vector-effect="non-scaling-stroke" stroke-width="2" stroke="rgb(0,0,0)" stroke-linejoin="miter" stroke-linecap="butt" stroke-miterlimit="4"/><path d=" M 456 253 C 445.507 253 437 261.64 437 272.298 C 437 281.34 443.131 288.906 451.396 291 C 451.307 290.739 451.25 290.437 451.25 290.062 L 451.25 286.764 C 450.479 286.764 449.187 286.764 448.862 286.764 C 447.562 286.764 446.407 286.197 445.846 285.142 C 445.224 283.969 445.116 282.176 443.574 281.079 C 443.116 280.714 443.465 280.298 443.992 280.354 C 444.966 280.634 445.773 281.313 446.533 282.319 C 447.29 283.328 447.646 283.556 449.06 283.556 C 449.746 283.556 450.772 283.516 451.738 283.361 C 452.257 282.022 453.155 280.788 454.252 280.206 C 447.925 279.545 444.906 276.348 444.906 272.008 C 444.906 270.139 445.689 268.332 447.021 266.809 C 446.584 265.297 446.034 262.215 447.189 261.041 C 450.036 261.041 451.757 262.916 452.17 263.422 C 453.589 262.929 455.147 262.649 456.784 262.649 C 458.424 262.649 459.988 262.929 461.41 263.425 C 461.819 262.922 463.541 261.041 466.395 261.041 C 467.554 262.216 466.998 265.312 466.556 266.82 C 467.88 268.34 468.659 270.143 468.659 272.008 C 468.659 276.345 465.644 279.54 459.327 280.205 C 461.065 281.126 462.333 283.715 462.333 285.666 L 462.333 290.062 C 462.333 290.23 462.297 290.35 462.278 290.493 C 469.682 287.858 475 280.718 475 272.298 C 475 261.64 466.493 253 456 253 Z " fill="rgb(255,255,255)"/><g><path d=" M 191.74 237.5 C 191.577 237.5 191.425 237.445 191.284 237.35 L 189.841 236.271 C 189.624 236.121 189.732 236.066 189.798 236.039 C 190.09 235.916 190.145 235.888 190.448 235.67 C 190.481 235.643 190.524 235.656 190.557 235.684 L 191.664 236.517 C 191.707 236.544 191.761 236.544 191.794 236.517 L 196.123 233.362 C 196.166 233.334 196.188 233.28 196.188 233.211 L 196.188 226.915 C 196.188 226.847 196.166 226.792 196.123 226.765 L 191.794 223.623 C 191.75 223.596 191.696 223.596 191.664 223.623 L 187.335 226.765 C 187.291 226.792 187.269 226.86 187.269 226.915 L 187.269 233.211 C 187.269 233.266 187.291 233.334 187.335 233.362 L 188.517 234.222 C 189.157 234.632 189.559 234.154 189.559 233.676 L 189.559 227.461 C 189.559 227.379 189.613 227.297 189.689 227.297 L 190.242 227.297 C 190.307 227.297 190.373 227.366 190.373 227.461 L 190.373 233.676 C 190.373 234.755 189.906 235.383 189.092 235.383 C 188.843 235.383 188.647 235.383 188.094 235.041 L 186.955 234.222 C 186.673 234.017 186.499 233.635 186.499 233.225 L 186.499 226.929 C 186.499 226.519 186.673 226.136 186.955 225.932 L 191.284 222.777 C 191.555 222.585 191.924 222.585 192.195 222.777 L 196.524 225.932 C 196.806 226.136 196.98 226.519 196.98 226.929 L 196.98 233.225 C 196.98 233.635 196.806 234.017 196.524 234.222 L 192.195 237.377 C 192.054 237.459 191.892 237.5 191.74 237.5 L 191.74 237.5 Z  M 193.074 233.17 C 191.175 233.17 190.785 232.078 190.785 231.149 C 190.785 231.067 190.839 230.985 190.915 230.985 L 191.479 230.985 C 191.544 230.985 191.599 231.04 191.599 231.122 C 191.685 231.846 191.935 232.201 193.085 232.201 C 193.996 232.201 194.387 231.941 194.387 231.327 C 194.387 230.971 194.278 230.712 192.857 230.534 C 191.674 230.384 190.937 230.056 190.937 228.868 C 190.937 227.762 191.675 227.106 192.911 227.106 C 194.3 227.106 194.984 227.707 195.071 229.018 C 195.071 229.059 195.06 229.1 195.038 229.141 C 195.016 229.169 194.984 229.196 194.951 229.196 L 194.387 229.196 C 194.333 229.196 194.278 229.141 194.268 229.073 C 194.137 228.322 193.801 228.076 192.911 228.076 C 191.913 228.076 191.794 228.513 191.794 228.841 C 191.794 229.237 191.935 229.36 193.28 229.578 C 194.615 229.797 195.244 230.111 195.244 231.286 C 195.233 232.487 194.452 233.17 193.074 233.17 Z " fill="rgb(83,158,67)"/><path d=" M 178.307 212.874 C 178.307 212.629 178.199 212.396 178.025 212.273 L 173.425 208.941 C 173.349 208.886 173.262 208.859 173.175 208.845 L 173.132 208.845 C 173.045 208.845 172.958 208.886 172.882 208.941 L 168.282 212.273 C 168.108 212.396 168 212.628 168 212.874 L 168.011 221.834 C 168.011 221.957 168.065 222.08 168.152 222.135 C 168.239 222.203 168.347 222.203 168.423 222.135 L 171.157 220.168 C 171.331 220.045 171.439 219.813 171.439 219.567 L 171.439 215.374 C 171.439 215.128 171.548 214.896 171.722 214.773 L 172.882 213.926 C 172.969 213.858 173.067 213.83 173.165 213.83 C 173.262 213.83 173.36 213.858 173.436 213.926 L 174.597 214.773 C 174.77 214.896 174.879 215.128 174.879 215.374 L 174.879 219.567 C 174.879 219.813 174.987 220.045 175.161 220.168 L 177.895 222.135 C 177.982 222.203 178.09 222.203 178.177 222.135 C 178.264 222.08 178.318 221.957 178.318 221.834 L 178.307 212.874 Z  M 200.42 200.541 C 200.333 200.486 200.224 200.486 200.148 200.541 C 200.061 200.609 200.007 200.719 200.007 200.841 L 200.007 209.719 C 200.007 209.801 199.975 209.883 199.91 209.938 C 199.845 209.979 199.779 209.979 199.714 209.938 L 198.564 209.105 C 198.393 208.982 198.182 208.982 198.011 209.105 L 193.41 212.451 C 193.237 212.574 193.128 212.806 193.128 213.052 L 193.128 219.731 C 193.128 219.976 193.237 220.209 193.41 220.332 L 198.011 223.678 C 198.182 223.801 198.393 223.801 198.564 223.678 L 203.165 220.332 C 203.338 220.209 203.447 219.977 203.447 219.731 L 203.447 203.081 C 203.447 202.822 203.338 202.59 203.165 202.467 L 200.42 200.541 L 200.42 200.541 Z  M 199.996 217.532 C 199.996 217.6 199.975 217.655 199.931 217.682 L 198.358 218.829 C 198.314 218.857 198.261 218.857 198.217 218.829 L 196.644 217.682 C 196.6 217.655 196.579 217.586 196.579 217.532 L 196.579 215.237 C 196.579 215.169 196.6 215.114 196.644 215.087 L 198.217 213.94 C 198.261 213.912 198.314 213.912 198.358 213.94 L 199.931 215.087 C 199.975 215.114 199.996 215.183 199.996 215.237 L 199.996 217.532 Z  M 215.729 215.183 C 215.902 215.06 216 214.827 216 214.582 L 216 212.956 C 216 212.71 215.891 212.478 215.729 212.355 L 211.161 209.023 C 210.989 208.9 210.779 208.9 210.608 209.023 L 206.007 212.369 C 205.834 212.492 205.725 212.724 205.725 212.97 L 205.725 219.649 C 205.725 219.895 205.834 220.127 206.007 220.25 L 210.575 223.528 C 210.749 223.651 210.955 223.651 211.118 223.528 L 213.884 221.588 C 213.971 221.534 214.025 221.411 214.025 221.288 C 214.025 221.165 213.971 221.042 213.884 220.987 L 209.262 217.641 C 209.175 217.573 209.121 217.464 209.121 217.341 L 209.121 215.251 C 209.121 215.128 209.175 215.005 209.262 214.951 L 210.705 213.912 C 210.791 213.844 210.901 213.844 210.987 213.912 L 212.43 214.951 C 212.517 215.019 212.571 215.128 212.571 215.251 L 212.571 216.89 C 212.571 217.013 212.626 217.136 212.712 217.19 C 212.799 217.259 212.908 217.259 212.995 217.19 L 215.729 215.183 L 215.729 215.183 Z " fill="rgb(51,51,51)"/><path d=" M 210.814 214.868 C 210.847 214.841 210.889 214.841 210.922 214.868 L 211.801 215.51 C 211.834 215.538 211.855 215.579 211.855 215.633 L 211.855 216.917 C 211.855 216.972 211.834 217.013 211.801 217.04 L 210.922 217.682 C 210.889 217.709 210.847 217.709 210.814 217.682 L 209.935 217.04 C 209.902 217.013 209.881 216.972 209.881 216.917 L 209.881 215.633 C 209.881 215.579 209.902 215.538 209.935 215.51 L 210.814 214.868 L 210.814 214.868 Z " fill="rgb(83,158,67)"/><g><linearGradient id="_lgradient_14" x1="0" y1="0.5" x2="0.44016205168002454" y2="-0.3979183527809371" gradientTransform="matrix(10.232,0,0,14.675,180.608,208.958)" gradientUnits="userSpaceOnUse"><stop offset="10.254710597652304%" stop-opacity="1" style="stop-color:rgb(63,174,42)"/><stop offset="34.016428997652305%" stop-opacity="1" style="stop-color:rgb(63,169,45)"/><stop offset="56.159344197652295%" stop-opacity="1" style="stop-color:rgb(65,150,55)"/><stop offset="77.60125979765229%" stop-opacity="1" style="stop-color:rgb(65,139,61)"/><stop offset="82.52271059765229%" stop-opacity="1" style="stop-color:rgb(65,135,63)"/></linearGradient><path d=" M 186 209.05 C 185.828 208.927 185.618 208.927 185.447 209.05 L 180.879 212.369 C 180.705 212.492 180.608 212.724 180.608 212.97 L 180.608 219.621 C 180.608 219.867 180.716 220.099 180.879 220.222 L 185.447 223.541 C 185.618 223.664 185.828 223.664 186 223.541 L 190.568 220.222 C 190.741 220.099 190.839 219.867 190.839 219.621 L 190.839 212.97 C 190.839 212.724 190.731 212.492 190.568 212.369 L 186 209.05 Z " fill="url(#_lgradient_14)"/><clipPath id="_clipPath_GXvCuKcERmb0yLeU8vArwUhfJxOTOxGh"><path d=" M 186 209.05 C 185.828 208.927 185.618 208.927 185.447 209.05 L 180.879 212.369 C 180.705 212.492 180.608 212.724 180.608 212.97 L 180.608 219.621 C 180.608 219.867 180.716 220.099 180.879 220.222 L 185.447 223.541 C 185.618 223.664 185.828 223.664 186 223.541 L 190.568 220.222 C 190.741 220.099 190.839 219.867 190.839 219.621 L 190.839 212.97 C 190.839 212.724 190.731 212.492 190.568 212.369 L 186 209.05 Z " fill="rgb(255,255,255)"/></clipPath><g clip-path="url(#_clipPath_GXvCuKcERmb0yLeU8vArwUhfJxOTOxGh)"><g><path d=" M 185.436 209.05 L 180.857 212.369 C 180.683 212.492 180.564 212.724 180.564 212.97 L 180.564 219.622 C 180.564 219.786 180.618 219.936 180.705 220.059 L 185.848 208.968 C 185.718 208.941 185.566 208.954 185.436 209.05 L 185.436 209.05 Z  M 185.881 223.61 C 185.924 223.596 185.968 223.569 186.011 223.541 L 190.59 220.222 C 190.763 220.1 190.872 219.867 190.872 219.621 L 190.872 212.97 C 190.872 212.792 190.806 212.615 190.709 212.492 L 185.881 223.61 L 185.881 223.61 Z " fill="none"/><linearGradient id="_lgradient_15" x1="0" y1="0.5" x2="0.804281568535581" y2="-0.09424839799022222" gradientTransform="matrix(9.993,0,0,14.669,180.705,208.982)" gradientUnits="userSpaceOnUse"><stop offset="58.72731160453575%" stop-opacity="1" style="stop-color:rgb(65,135,63)"/><stop offset="89.52841240453576%" stop-opacity="1" style="stop-color:rgb(84,160,68)"/><stop offset="100%" stop-opacity="1" style="stop-color:rgb(106,189,73)"/><stop offset="100%" stop-opacity="1" style="stop-color:rgb(108,192,74)"/></linearGradient><path d=" M 190.579 212.369 L 185.989 209.05 C 185.944 209.021 185.897 208.999 185.848 208.982 L 180.705 220.072 C 180.748 220.138 180.799 220.193 180.857 220.236 L 185.447 223.555 C 185.577 223.651 185.729 223.678 185.87 223.623 L 190.698 212.506 C 190.665 212.451 190.622 212.41 190.579 212.369 L 190.579 212.369 Z " fill="url(#_lgradient_15)"/></g></g><clipPath id="_clipPath_ga6XBFc8OK1bO8gvWCgzgyRhnzHYgec8"><path d=" M 186 209.05 C 185.828 208.927 185.618 208.927 185.447 209.05 L 180.879 212.369 C 180.705 212.492 180.608 212.724 180.608 212.97 L 180.608 219.621 C 180.608 219.867 180.716 220.099 180.879 220.222 L 185.447 223.541 C 185.618 223.664 185.828 223.664 186 223.541 L 190.568 220.222 C 190.741 220.099 190.839 219.867 190.839 219.621 L 190.839 212.97 C 190.839 212.724 190.731 212.492 190.568 212.369 L 186 209.05 Z " fill="rgb(255,255,255)"/></clipPath><g clip-path="url(#_clipPath_ga6XBFc8OK1bO8gvWCgzgyRhnzHYgec8)"><g><path d=" M 190.872 219.621 L 190.872 212.97 C 190.872 212.724 190.752 212.492 190.579 212.369 L 185.989 209.05 C 185.936 209.009 185.877 208.981 185.816 208.968 L 190.839 219.772 C 190.861 219.731 190.872 219.676 190.872 219.622 L 190.872 219.621 Z  M 180.857 212.369 C 180.684 212.492 180.564 212.724 180.564 212.97 L 180.564 219.622 C 180.564 219.867 180.694 220.1 180.857 220.223 L 185.447 223.541 C 185.555 223.623 185.675 223.651 185.805 223.623 L 180.89 212.355 L 180.857 212.369 L 180.857 212.369 Z " fill="none"/><linearGradient id="_lgradient_16" x1="0" y1="0.5" x2="1" y2="0.5" gradientTransform="matrix(0.087,0,0,0.041,185.23,207.834)" gradientUnits="userSpaceOnUse"><stop offset="0%" stop-opacity="1" style="stop-color:rgb(99,180,71)"/><stop offset="100%" stop-opacity="1" style="stop-color:rgb(102,184,72)"/><stop offset="100%" stop-opacity="1" style="stop-color:rgb(84,160,68)"/></linearGradient><path d=" M 185.295 207.834 L 185.23 207.875 L 185.316 207.875 L 185.295 207.834 Z " fill-rule="evenodd" fill="url(#_lgradient_16)"/><linearGradient id="_lgradient_17" x1="0" y1="0.5" x2="1" y2="0.5" gradientTransform="matrix(9.982,0,0,14.681,180.879,208.956)" gradientUnits="userSpaceOnUse"><stop offset="5.344224960000001%" stop-opacity="1" style="stop-color:rgb(108,192,74)"/><stop offset="25.9373232%" stop-opacity="1" style="stop-color:rgb(102,184,72)"/><stop offset="58.804958400000004%" stop-opacity="1" style="stop-color:rgb(84,160,68)"/><stop offset="86.9288112%" stop-opacity="1" style="stop-color:rgb(65,135,63)"/></linearGradient><path d=" M 190.59 220.222 C 190.72 220.127 190.817 219.963 190.861 219.785 L 185.826 208.968 C 185.696 208.941 185.555 208.954 185.436 209.05 L 180.879 212.355 L 185.794 223.637 C 185.865 223.622 185.935 223.595 186 223.555 L 190.589 220.223 L 190.59 220.222 Z " fill-rule="evenodd" fill="url(#_lgradient_17)"/><linearGradient id="_lgradient_18" x1="0" y1="0.5" x2="1" y2="0.5" gradientTransform="matrix(0.033,0,0,0.096,190.98,220.045)" gradientUnits="userSpaceOnUse"><stop offset="0%" stop-opacity="1" style="stop-color:rgb(65,135,63)"/></linearGradient><path d=" M 191.013 220.113 L 190.98 220.045 L 190.98 220.141 L 191.013 220.113 L 191.013 220.113 Z " fill-rule="evenodd" fill="url(#_lgradient_18)"/><linearGradient id="_lgradient_19" x1="0" y1="0.5" x2="1" y2="0.5" gradientTransform="matrix(5.165,0,0,4.056,185.805,219.772)" gradientUnits="userSpaceOnUse"><stop offset="0%" stop-opacity="1" style="stop-color:rgb(98,179,71)"/><stop offset="18.278894400000013%" stop-opacity="1" style="stop-color:rgb(84,160,68)"/><stop offset="72.6360592%" stop-opacity="1" style="stop-color:rgb(65,135,63)"/></linearGradient><path d=" M 190.59 220.222 L 186.011 223.541 C 185.946 223.583 185.877 223.611 185.805 223.623 L 185.892 223.828 L 190.969 220.127 L 190.969 220.045 L 190.839 219.772 C 190.817 219.963 190.72 220.127 190.59 220.222 L 190.59 220.222 Z " fill-rule="evenodd" fill="url(#_lgradient_19)"/><linearGradient id="_lgradient_20" x1="0" y1="0.5" x2="0.4401582471667053" y2="-0.3979202177538568" gradientTransform="matrix(5.165,0,0,4.056,185.805,219.772)" gradientUnits="userSpaceOnUse"><stop offset="0%" stop-opacity="1" style="stop-color:rgb(63,173,43)"/><stop offset="34.565346781427486%" stop-opacity="1" style="stop-color:rgb(63,169,45)"/><stop offset="100%" stop-opacity="1" style="stop-color:rgb(64,162,49)"/><stop offset="100%" stop-opacity="1" style="stop-color:rgb(65,147,57)"/><stop offset="100%" stop-opacity="1" style="stop-color:rgb(65,138,61)"/></linearGradient><path d=" M 190.59 220.222 L 186.011 223.541 C 185.946 223.583 185.877 223.611 185.805 223.623 L 185.892 223.828 L 190.969 220.127 L 190.969 220.045 L 190.839 219.772 C 190.817 219.963 190.72 220.127 190.59 220.222 L 190.59 220.222 Z " fill-rule="evenodd" fill="url(#_lgradient_20)"/></g></g></g></g><g><path d=" M 186 272.928 C 186 276.288 188.95 279.425 193.6 281.193 C 192.672 286.392 193.434 290.584 195.98 292.217 C 198.597 293.895 202.495 292.733 206.196 289.136 C 209.803 292.588 213.448 293.947 215.992 292.309 C 218.606 290.626 219.401 286.15 218.447 280.788 C 223.291 279.007 226 276.332 226 272.928 C 226 269.646 223.045 266.807 218.457 265.05 C 219.484 259.466 218.614 255.377 215.963 253.676 C 213.406 252.037 209.719 253.466 206.059 257.009 C 202.251 253.248 198.6 252.1 195.951 253.806 C 193.397 255.45 192.669 259.717 193.6 265.013 C 189.107 266.756 186 269.659 186 272.928 Z " fill="rgb(255,255,255)"/><path d=" M 217.485 266.795 C 217.107 266.65 216.726 266.517 216.342 266.394 C 216.406 266.106 216.464 265.817 216.519 265.526 C 217.384 260.853 216.818 257.088 214.885 255.848 C 213.032 254.66 210.002 255.899 206.941 258.862 C 206.639 259.154 206.344 259.455 206.056 259.764 C 205.863 259.559 205.667 259.357 205.468 259.16 C 202.26 255.992 199.044 254.657 197.113 255.9 C 195.262 257.092 194.714 260.632 195.493 265.061 C 195.57 265.499 195.658 265.936 195.755 266.369 C 195.3 266.513 194.861 266.666 194.441 266.829 C 190.68 268.288 188.278 270.573 188.278 272.944 C 188.278 275.393 190.856 277.849 194.774 279.338 C 195.091 279.458 195.412 279.57 195.734 279.672 C 195.629 280.139 195.536 280.61 195.455 281.083 C 194.712 285.435 195.292 288.891 197.139 290.075 C 199.046 291.299 202.247 290.041 205.364 287.011 C 205.61 286.771 205.858 286.517 206.105 286.251 C 206.417 286.586 206.737 286.911 207.065 287.226 C 210.085 290.115 213.066 291.282 214.911 290.094 C 216.817 288.867 217.436 285.155 216.632 280.638 C 216.57 280.293 216.499 279.941 216.419 279.582 C 216.644 279.508 216.864 279.432 217.079 279.352 C 221.152 277.852 223.801 275.426 223.801 272.944 C 223.801 270.565 221.322 268.264 217.485 266.795 L 217.485 266.795 Z " fill="rgb(83,193,222)"/><path d=" M 216.602 277.75 C 216.408 277.822 216.209 277.891 216.005 277.958 C 215.556 276.375 214.949 274.692 214.207 272.953 C 214.915 271.255 215.498 269.593 215.935 268.02 C 216.299 268.137 216.652 268.261 216.991 268.391 C 220.279 269.649 222.284 271.51 222.284 272.944 C 222.284 274.472 220.118 276.455 216.602 277.75 L 216.602 277.75 Z  M 215.143 280.966 C 215.499 282.963 215.549 284.769 215.314 286.181 C 215.102 287.449 214.677 288.295 214.151 288.633 C 213.031 289.354 210.637 288.417 208.055 285.946 C 207.759 285.663 207.461 285.36 207.162 285.04 C 208.163 283.823 209.163 282.407 210.14 280.835 C 211.857 280.666 213.479 280.388 214.951 280.01 C 215.023 280.335 215.088 280.654 215.143 280.966 L 215.143 280.966 Z  M 200.389 288.509 C 199.295 288.939 198.424 288.951 197.897 288.613 C 196.777 287.894 196.311 285.119 196.946 281.397 C 197.022 280.958 197.108 280.52 197.206 280.086 C 198.661 280.444 200.271 280.701 201.993 280.856 C 202.976 282.395 204.005 283.809 205.042 285.047 C 204.822 285.284 204.596 285.515 204.365 285.74 C 202.987 287.08 201.606 288.031 200.389 288.509 L 200.389 288.509 Z  M 195.264 277.741 C 193.532 277.082 192.102 276.227 191.121 275.293 C 190.24 274.454 189.795 273.62 189.795 272.944 C 189.795 271.506 191.724 269.67 194.94 268.423 C 195.344 268.267 195.752 268.125 196.163 267.995 C 196.608 269.603 197.191 271.285 197.894 272.985 C 197.182 274.711 196.59 276.419 196.141 278.046 C 195.847 277.953 195.554 277.851 195.264 277.741 L 195.264 277.741 Z  M 196.982 264.737 C 196.315 260.942 196.758 258.079 197.874 257.361 C 199.062 256.595 201.69 257.687 204.46 260.422 C 204.637 260.597 204.815 260.78 204.993 260.969 C 203.961 262.202 202.941 263.605 201.967 265.134 C 200.296 265.307 198.697 265.583 197.226 265.954 C 197.136 265.55 197.054 265.144 196.982 264.736 L 196.982 264.737 Z  M 212.305 268.945 C 211.958 268.278 211.598 267.619 211.225 266.969 C 212.359 267.128 213.445 267.34 214.464 267.599 C 214.158 268.69 213.777 269.831 213.327 271.001 C 212.999 270.308 212.658 269.623 212.305 268.945 L 212.305 268.945 Z  M 206.057 262.175 C 206.757 263.019 207.458 263.961 208.147 264.982 C 206.748 264.909 205.347 264.908 203.949 264.981 C 204.639 263.969 205.346 263.029 206.057 262.175 Z  M 199.768 268.956 C 199.419 269.629 199.085 270.31 198.765 271 C 198.323 269.834 197.945 268.688 197.636 267.581 C 198.65 267.329 199.731 267.122 200.857 266.966 C 200.48 267.62 200.117 268.284 199.768 268.956 L 199.768 268.956 Z  M 200.889 279.043 C 199.726 278.899 198.629 278.703 197.615 278.458 C 197.929 277.331 198.315 276.16 198.767 274.969 C 199.088 275.66 199.424 276.341 199.774 277.014 C 200.131 277.7 200.503 278.377 200.889 279.043 L 200.889 279.043 Z  M 206.099 283.832 C 205.379 282.969 204.662 282.014 203.961 280.987 C 204.641 281.017 205.335 281.032 206.04 281.032 C 206.764 281.032 207.48 281.014 208.184 280.979 C 207.492 282.025 206.794 282.981 206.099 283.832 Z  M 213.342 274.909 C 213.817 276.112 214.217 277.277 214.535 278.384 C 213.505 278.646 212.393 278.856 211.221 279.013 C 211.596 278.351 211.96 277.68 212.312 277.002 C 212.669 276.313 213.012 275.615 213.342 274.909 L 213.342 274.909 Z  M 210.997 276.159 C 210.459 277.199 209.89 278.219 209.293 279.217 C 208.239 279.301 207.15 279.344 206.04 279.344 C 204.934 279.344 203.859 279.306 202.823 279.231 C 202.21 278.235 201.631 277.213 201.087 276.168 C 200.546 275.129 200.04 274.067 199.572 272.985 C 200.039 271.902 200.543 270.84 201.083 269.799 L 201.083 269.8 C 201.622 268.759 202.196 267.742 202.805 266.75 C 203.862 266.661 204.945 266.615 206.04 266.615 C 207.14 266.615 208.224 266.661 209.28 266.751 C 209.883 267.741 210.454 268.755 210.992 269.791 C 211.533 270.829 212.044 271.886 212.523 272.961 C 212.049 274.047 211.54 275.113 210.997 276.159 L 210.997 276.159 Z  M 214.128 257.31 C 215.317 258.073 215.78 261.151 215.032 265.186 C 214.983 265.449 214.93 265.711 214.873 265.971 C 213.399 265.593 211.798 265.312 210.123 265.137 C 209.147 263.591 208.135 262.185 207.12 260.968 C 207.386 260.683 207.658 260.405 207.937 260.135 C 210.56 257.596 213.011 256.594 214.128 257.31 L 214.128 257.31 Z " fill="rgb(255,255,255)"/><path d=" M 206.04 269.416 C 207.792 269.416 209.212 270.996 209.212 272.944 C 209.212 274.893 207.792 276.473 206.04 276.473 C 204.288 276.473 202.868 274.893 202.868 272.944 C 202.868 270.996 204.288 269.416 206.04 269.416" fill="rgb(83,193,222)"/></g><g><path d=" M 254.8 335.5 C 254.8 338.262 252.562 340.5 249.8 340.5 L 223.8 340.5 C 221.039 340.5 218.8 338.262 218.8 335.5 L 218.8 309.5 C 218.8 306.738 221.039 304.5 223.8 304.5 L 249.8 304.5 C 252.562 304.5 254.8 306.738 254.8 309.5 L 254.8 335.5 Z " fill="rgb(103,58,183)"/><path d=" M 245.83 324.1 C 245.18 323.2 244.24 322.58 243.03 322.25 C 243.03 322.25 244.05 321.88 244.97 320.5 C 245.52 319.62 245.8 318.56 245.8 317.32 C 245.8 315.17 245.02 313.52 243.46 312.39 C 241.9 311.26 240.14 310.5 237.15 310.5 L 227.8 310.5 L 227.8 334.5 L 238.23 334.5 C 241.06 334.48 243.19 333.87 244.64 332.7 C 246.08 331.51 246.8 329.75 246.8 327.4 C 246.8 326.1 246.48 325 245.83 324.1 Z  M 233.8 314.5 C 233.8 314.5 237.97 314.5 238.05 314.5 C 239.57 314.5 240.8 315.73 240.8 317.25 C 240.8 318.77 239.57 320 238.05 320 C 237.97 320 233.8 320 233.8 320 L 233.8 314.5 Z  M 238.8 330.5 L 233.8 330.5 L 233.8 324.5 L 238.8 324.5 C 240.46 324.5 241.8 325.84 241.8 327.5 C 241.8 329.16 240.46 330.5 238.8 330.5 Z " fill="rgb(255,255,255)"/></g><g><path d=" M 440.159 200.5 L 488.159 200.5 L 488.159 217.5 L 464.159 217.5 L 464.159 220.5 L 453.159 220.5 L 453.159 217.5 L 440.159 217.5 L 440.159 200.5 Z " fill="rgb(213,0,0)"/><path d=" M 443.159 214.5 L 448.159 214.5 L 448.159 206.5 L 451.159 206.5 L 451.159 214.5 L 453.159 214.5 L 453.159 203.5 L 443.159 203.5 L 443.159 214.5 Z  M 456.159 203.5 L 456.159 217.5 L 461.159 217.5 L 461.159 214.5 L 466.159 214.5 L 466.159 203.5 L 456.159 203.5 Z  M 464.159 211.5 L 461.159 211.5 L 461.159 206.5 L 464.159 206.5 L 464.159 211.5 Z  M 469.159 203.5 L 469.159 214.5 L 474.159 214.5 L 474.159 206.5 L 477.159 206.5 L 477.159 214.5 L 480.159 214.5 L 480.159 206.5 L 483.159 206.5 L 483.159 214.5 L 485.159 214.5 L 485.159 203.5 L 469.159 203.5 Z " fill="rgb(255,255,255)"/></g><g><path d=" M 190 175 L 190 139 L 226 139 L 226 175 L 190 175 Z " fill="rgb(255,214,0)"/><path d=" M 213.538 165.947 C 214.23 167.071 214.982 168.148 216.575 168.148 C 217.913 168.148 218.615 167.483 218.615 166.563 C 218.615 165.462 217.889 165.071 216.417 164.43 L 215.61 164.086 C 213.281 163.098 211.732 161.86 211.732 159.245 C 211.732 156.835 213.577 155.001 216.46 155.001 C 218.513 155.001 219.988 155.712 221.052 157.574 L 218.538 159.181 C 217.985 158.193 217.387 157.804 216.46 157.804 C 215.514 157.804 214.915 158.401 214.915 159.181 C 214.915 160.145 215.515 160.535 216.9 161.132 L 217.707 161.476 C 220.452 162.645 222 163.839 222 166.523 C 222 169.415 219.716 171 216.65 171 C 213.651 171 211.948 169.495 211 167.632 L 213.538 165.947 Z  M 201.952 166.029 C 202.458 166.935 203.227 167.632 204.333 167.632 C 205.391 167.632 206 167.214 206 165.589 L 206 155 L 209.333 155 L 209.333 166.101 C 209.333 169.468 207.38 171 204.528 171 C 201.951 171 200.091 169.254 199.333 167.632 L 201.952 166.029 Z " fill="rgb(0,0,1)"/></g><path d=" M 273.069 108.463 L 254.11 88.838 C 253.528 88.236 252.714 87.875 251.9 87.875 C 251.9 87.875 251.9 87.875 251.9 87.875 C 251.086 87.875 250.272 88.236 249.69 88.838 L 245.619 93.052 L 250.388 97.988 C 250.853 97.747 251.318 97.627 251.9 97.627 C 253.877 97.627 255.389 99.192 255.389 101.239 C 255.389 101.841 255.273 102.322 255.041 102.804 L 259.693 107.62 C 260.158 107.379 260.624 107.259 261.205 107.259 C 263.183 107.259 264.695 108.824 264.695 110.87 C 264.695 112.917 263.183 114.482 261.205 114.482 C 259.228 114.482 257.716 112.917 257.716 110.87 C 257.716 110.268 257.832 109.787 258.065 109.305 L 253.412 104.489 C 253.296 104.489 253.179 104.61 253.063 104.61 L 253.063 117.131 C 254.459 117.612 255.389 118.937 255.389 120.502 C 255.389 122.549 253.877 124.114 251.9 124.114 C 249.923 124.114 248.411 122.549 248.411 120.502 C 248.411 118.937 249.341 117.612 250.737 117.131 L 250.737 104.489 C 249.341 104.008 248.411 102.684 248.411 101.118 C 248.411 100.516 248.527 100.035 248.759 99.553 L 243.991 94.617 L 230.731 108.463 C 230.149 109.064 229.8 109.907 229.8 110.75 C 229.8 111.593 230.149 112.436 230.731 113.038 L 249.69 132.662 C 249.69 132.662 249.69 132.662 249.69 132.662 C 250.272 133.264 251.086 133.625 251.9 133.625 C 252.714 133.625 253.528 133.264 254.11 132.662 L 273.069 113.038 C 273.651 112.436 274 111.593 274 110.75 C 274 109.907 273.651 109.064 273.069 108.463 Z " fill="rgb(244,81,30)"/><g><path d=" M 377.787 332 L 337.787 332 L 341.316 367.789 L 357.787 372 L 374.258 367.789 L 377.787 332 L 377.787 332 Z " fill="rgb(2,119,189)"/><path d=" M 357.787 335.158 L 357.787 368.737 L 370.963 365.368 L 373.905 335.158 L 357.787 335.158 Z " fill="rgb(3,155,229)"/><path d=" M 368.493 340.421 L 357.787 340.421 L 357.787 344.632 L 363.552 344.632 L 363.199 348.842 L 357.787 348.842 L 357.787 353.053 L 362.963 353.053 L 362.611 357.789 L 357.787 359.263 L 357.787 363.684 L 367.081 360.947 L 367.905 348.842 L 367.905 348.842 L 368.493 340.421 Z " fill="rgb(255,255,255)"/><path d=" M 357.787 340.421 L 357.787 344.632 L 347.316 344.632 L 346.963 340.421 L 357.787 340.421 Z  M 352.375 348.842 L 352.611 353.053 L 357.787 353.053 L 357.787 348.842 L 352.375 348.842 Z  M 352.846 355.158 L 348.14 355.158 L 348.493 360.947 L 357.787 363.684 L 357.787 359.263 L 352.963 357.789 L 352.846 355.158 Z " fill="rgb(238,238,238)"/></g><g><path d=" M 312 344.5 C 312 355.546 303.046 364.5 292 364.5 C 280.954 364.5 272 355.546 272 344.5 C 272 333.454 280.954 324.5 292 324.5 C 303.046 324.5 312 333.454 312 344.5 Z " fill="rgb(221,72,20)"/><path d=" M 278.401 341.83 C 276.925 341.83 275.73 343.025 275.73 344.5 C 275.73 345.975 276.925 347.17 278.401 347.17 C 279.875 347.17 281.071 345.975 281.071 344.5 C 281.071 343.025 279.875 341.83 278.401 341.83 Z  M 297.466 353.966 C 296.189 354.703 295.751 356.336 296.488 357.612 C 297.225 358.889 298.858 359.327 300.135 358.59 C 301.412 357.853 301.85 356.22 301.112 354.943 C 300.375 353.667 298.742 353.229 297.466 353.966 Z  M 284.201 344.5 C 284.201 341.861 285.512 339.53 287.517 338.118 L 285.565 334.849 C 283.229 336.41 281.49 338.797 280.768 341.592 C 281.611 342.279 282.15 343.326 282.15 344.5 C 282.15 345.673 281.611 346.72 280.768 347.408 C 281.489 350.204 283.228 352.59 285.565 354.152 L 287.517 350.881 C 285.512 349.47 284.201 347.139 284.201 344.5 L 284.201 344.5 Z  M 292 336.7 C 296.075 336.7 299.418 339.824 299.769 343.808 L 303.573 343.752 C 303.386 340.811 302.101 338.17 300.127 336.229 C 299.112 336.612 297.939 336.553 296.925 335.969 C 295.91 335.383 295.273 334.395 295.099 333.322 C 294.09 333.042 293.047 332.901 292 332.9 C 290.217 332.898 288.457 333.309 286.859 334.101 L 288.715 337.426 C 289.744 336.947 290.865 336.699 292 336.7 L 292 336.7 Z  M 292 352.3 C 290.865 352.301 289.744 352.053 288.715 351.574 L 286.859 354.899 C 288.457 355.691 290.217 356.102 292 356.101 C 293.048 356.1 294.09 355.958 295.099 355.678 C 295.273 354.605 295.91 353.617 296.925 353.031 C 297.94 352.445 299.112 352.388 300.127 352.771 C 302.101 350.829 303.386 348.189 303.574 345.247 L 299.768 345.191 C 299.418 349.177 296.075 352.3 292 352.3 L 292 352.3 Z  M 297.465 335.033 C 298.742 335.771 300.374 335.334 301.111 334.057 C 301.849 332.78 301.412 331.147 300.135 330.409 C 298.858 329.673 297.225 330.11 296.487 331.387 C 295.751 332.664 296.189 334.296 297.465 335.033 Z " fill="rgb(255,255,255)"/></g><g><path d=" M 362.865 77.615 L 358.373 81.899 L 354.204 73.281 L 356.358 68.326 C 356.902 67.338 357.792 67.325 358.337 68.326 L 362.865 77.615 Z " fill="rgb(255,160,0)"/><path d=" M 358.375 81.897 L 341.574 97.903 L 354.206 73.281 L 358.375 81.897 Z " fill="rgb(245,127,23)"/><path d=" M 367.79 71.064 C 368.594 70.279 369.423 70.544 369.632 71.659 L 374 97.687 L 359.513 106.595 C 359.005 106.886 357.658 107 357.658 107 C 357.658 107 356.432 106.847 355.963 106.582 L 341.574 97.903 L 367.79 71.064 Z " fill="rgb(255,202,40)"/><path d=" M 354.206 73.281 L 341.574 97.903 L 347.203 61.915 C 347.415 60.8 348.032 60.686 348.589 61.674 L 354.206 73.281 Z " fill="rgb(255,160,0)"/></g><g><path d=" M 403 130 C 406.312 130 409 126.976 409 123.25 L 409 116.5 L 403 116.5 C 399.688 116.5 397 119.524 397 123.25 C 397 126.976 399.688 130 403 130 Z " fill="rgb(10,207,131)"/><path d=" M 397 109.75 C 397 106.024 399.688 103 403 103 L 409 103 L 409 116.5 L 403 116.5 C 399.688 116.5 397 113.476 397 109.75 Z " fill="rgb(162,89,255)"/><path d=" M 397 96.25 C 397 92.524 399.688 89.5 403 89.5 L 409 89.5 L 409 103 L 403 103 C 399.688 103 397 99.976 397 96.25 Z " fill="rgb(242,78,30)"/><path d=" M 409 89.5 L 415 89.5 C 418.312 89.5 421 92.524 421 96.25 C 421 99.976 418.312 103 415 103 L 409 103 L 409 89.5 Z " fill="rgb(255,114,98)"/><path d=" M 421 109.75 C 421 113.476 418.312 116.5 415 116.5 C 411.688 116.5 409 113.476 409 109.75 C 409 106.024 411.688 103 415 103 C 418.312 103 421 106.024 421 109.75 Z " fill="rgb(26,188,254)"/></g><g><path d=" M 292.12 107.252 L 292.12 103.508 C 292.12 103.244 291.888 103.13 291.615 103.13 C 291.068 103.13 290.384 103.244 289.763 103.473 L 289.763 107.252 L 288.5 107.252 L 288.5 100.3 L 289.763 100.3 L 289.763 102.594 C 290.363 102.409 291.078 102.251 291.794 102.251 C 292.941 102.251 293.373 102.84 293.373 103.648 L 293.373 107.252 L 292.12 107.252 L 292.12 107.252 Z  M 295.729 104.985 C 295.771 106.241 296.066 106.488 296.992 106.488 C 297.718 106.488 298.539 106.285 299.171 106.083 L 299.381 106.874 C 298.707 107.129 297.887 107.375 296.908 107.375 C 294.803 107.375 294.477 106.408 294.477 104.87 C 294.477 104.027 294.551 103.262 294.793 102.559 C 295.424 102.357 296.266 102.251 297.329 102.251 C 299.055 102.251 299.581 103.051 299.581 104.448 L 299.581 104.985 L 295.729 104.985 Z  M 297.329 103.13 C 296.95 103.13 296.35 103.139 295.856 103.218 C 295.803 103.429 295.74 103.719 295.719 104.255 L 298.35 104.255 C 298.35 103.525 298.192 103.13 297.329 103.13 Z  M 301.948 103.473 L 301.948 107.252 L 300.685 107.252 L 300.685 102.998 C 301.748 102.515 302.874 102.365 303.611 102.322 L 303.611 103.2 C 303.096 103.236 302.443 103.288 301.948 103.473 L 301.948 103.473 Z  M 306.947 107.375 C 305.063 107.375 304.21 106.602 304.21 104.835 C 304.21 102.963 305.336 102.251 306.947 102.251 C 308.83 102.251 309.683 103.025 309.683 104.791 C 309.683 106.663 308.557 107.375 306.947 107.375 Z  M 306.947 103.13 C 305.979 103.13 305.442 103.596 305.442 104.835 C 305.442 106.189 305.894 106.488 306.947 106.488 C 307.915 106.488 308.452 106.03 308.452 104.791 C 308.452 103.437 307.999 103.13 306.947 103.13 L 306.947 103.13 Z  M 315.776 107.252 L 314.292 107.252 C 313.945 106.479 313.46 105.688 312.713 105.002 L 312.05 105.002 L 312.05 107.252 L 310.787 107.252 L 310.787 100.3 L 312.05 100.3 L 312.05 104.29 L 312.639 104.29 C 313.281 103.736 313.776 103.051 314.123 102.374 L 315.544 102.374 C 315.06 103.192 314.439 103.912 313.744 104.501 C 314.576 105.38 315.228 106.312 315.776 107.252 L 315.776 107.252 Z  M 318.143 107.375 C 316.996 107.375 316.564 106.786 316.564 105.978 L 316.564 102.374 L 317.817 102.374 L 317.817 106.109 C 317.817 106.373 318.048 106.488 318.322 106.488 C 318.869 106.488 319.616 106.373 320.237 106.145 L 320.237 102.374 L 321.5 102.374 L 321.5 106.61 C 320.006 107.296 318.858 107.375 318.143 107.375 L 318.143 107.375 Z  M 317.585 98.528 L 292.4 98.528 C 290.246 98.528 288.5 97.07 288.5 95.271 L 288.5 67.632 C 288.5 65.833 290.246 64.375 292.4 64.375 L 317.585 64.375 C 319.739 64.375 321.485 65.833 321.485 67.632 L 321.485 95.271 C 321.485 97.07 319.739 98.528 317.585 98.528 L 317.585 98.528 Z " fill="rgb(103,98,166)"/><path d=" M 309.171 93.829 L 309.171 80.266 C 309.171 80.266 310.228 77.02 296.159 81.593 C 296.133 81.651 296.133 69.051 296.133 69.051 L 300.73 69.028 L 300.73 77.101 C 300.73 77.101 313.601 72.867 313.601 80.311 L 313.601 93.829 L 309.172 93.829 L 309.171 93.829 Z  M 311.791 73.914 L 306.915 73.914 C 308.67 72.122 310.259 69.051 310.259 69.051 L 315.3 69.051 C 315.3 69.051 314.437 71.052 311.791 73.914 L 311.791 73.914 Z  M 296.217 93.805 L 296.217 86.082 L 300.842 89.944 L 296.217 93.805 Z " fill="rgb(255,255,255)"/></g></g></svg>