<?xml version="1.0" encoding="UTF-8" standalone="no"?>
<!-- Generator: Gravit.io -->
<svg xmlns="http://www.w3.org/2000/svg" xmlns:xlink="http://www.w3.org/1999/xlink" style="isolation:isolate" viewBox="0 0 100 100" width="100pt" height="100pt"><defs><clipPath id="_clipPath_MKjxq9MGS34uw3qA5SHNWvD1NhTofYAt"><rect width="100" height="100"/></clipPath></defs><g clip-path="url(#_clipPath_MKjxq9MGS34uw3qA5SHNWvD1NhTofYAt)"><path d=" M 72.374 90.447 L 51.565 90.727 L 30.756 91.007 C 29.644 91.022 28.32 90.236 27.8 89.253 L 17.312 69.393 L 6.824 49.533 C 6.304 48.55 6.299 46.95 6.811 45.963 L 17.277 25.802 L 27.743 5.641 C 28.255 4.654 29.574 3.841 30.686 3.826 L 51.495 3.546 L 72.304 3.265 C 73.416 3.25 74.74 4.037 75.26 5.02 L 85.748 24.88 L 96.236 44.74 C 96.756 45.723 96.761 47.323 96.249 48.31 L 85.783 68.471 L 75.317 88.631 C 74.805 89.618 73.486 90.432 72.374 90.447 Z " fill="none" vector-effect="non-scaling-stroke" stroke-width="1" stroke="rgb(255,103,112)" stroke-linejoin="miter" stroke-linecap="square" stroke-miterlimit="3"/></g></svg>