<?xml version="1.0" encoding="UTF-8" standalone="no"?><!-- Generator: Gravit.io --><svg xmlns="http://www.w3.org/2000/svg" xmlns:xlink="http://www.w3.org/1999/xlink" style="isolation:isolate" viewBox="0 0.997 511 510.993" width="511pt" height="510.993pt"><g><path d=" M 59.914 286.895 L 65.875 280.805 L 65.875 347.316 C 65.875 352.828 70.343 357.296 75.856 357.296 C 81.364 357.296 85.836 352.828 85.836 347.316 L 85.836 260.392 L 255.5 86.903 L 425.164 260.392 L 425.164 452.11 L 85.836 452.11 L 85.836 427.159 C 85.836 421.647 81.364 417.179 75.856 417.179 C 70.343 417.179 65.875 421.647 65.875 427.159 L 65.875 452.11 L 55.895 452.11 C 39.353 452.11 25.953 465.506 25.953 482.052 C 25.953 498.559 39.384 511.989 55.895 511.989 L 455.106 511.989 C 471.648 511.989 485.047 498.594 485.047 482.052 C 485.047 465.541 471.616 452.11 455.106 452.11 L 445.125 452.11 L 445.125 280.805 L 451.079 286.891 C 464.65 300.793 486.759 300.871 500.478 287.464 C 514.306 273.943 514.505 251.838 501.067 238.092 L 280.483 11.211 C 274.139 4.72 265.032 0.997 255.5 0.997 C 245.964 0.997 236.861 4.72 230.498 11.227 L 145.715 98.435 L 145.715 50.899 C 145.715 45.387 141.247 40.919 135.734 40.919 L 75.856 40.919 C 70.343 40.919 65.875 45.387 65.875 50.899 L 65.875 180.556 L 9.953 238.068 C -3.532 251.862 -3.287 273.963 10.518 287.46 C 24.312 300.957 46.413 300.707 59.914 286.895 L 59.914 286.895 Z  M 465.086 482.048 C 465.086 487.557 460.615 492.029 455.106 492.029 L 55.895 492.029 C 50.39 492.029 45.914 487.553 45.914 482.048 C 45.914 476.539 50.382 472.068 55.895 472.068 L 455.106 472.068 C 460.607 472.068 465.086 476.547 465.086 482.048 Z  M 85.832 60.88 L 125.754 60.88 L 125.754 118.965 L 85.832 160.026 L 85.832 60.88 Z  M 24.246 252.006 C 26.694 249.511 241.617 28.428 244.791 25.161 C 247.403 22.49 251.305 20.958 255.5 20.958 C 259.691 20.958 263.594 22.49 266.186 25.141 L 486.77 252.025 C 492.548 257.932 492.439 267.405 486.521 273.191 C 480.63 278.949 471.16 278.891 465.355 272.941 L 262.635 65.652 C 260.756 63.73 258.186 62.65 255.5 62.65 C 252.814 62.65 250.241 63.73 248.366 65.652 L 45.641 272.941 C 39.778 278.941 30.308 278.899 24.476 273.191 C 18.593 267.441 18.405 257.979 24.246 252.006 Z " fill="rgb(255,255,255)"/><path d=" M 75.852 397.218 C 81.364 397.218 85.832 392.746 85.832 387.237 C 85.832 381.729 81.364 377.257 75.852 377.257 C 70.343 377.257 65.875 381.729 65.875 387.237 C 65.875 392.746 70.343 397.218 75.852 397.218 Z " fill="rgb(255,255,255)"/></g></svg>