<?xml version="1.0" encoding="UTF-8" standalone="no"?>
<!-- Generator: Gravit.io -->
<svg xmlns="http://www.w3.org/2000/svg" xmlns:xlink="http://www.w3.org/1999/xlink" style="isolation:isolate" viewBox="-34 -21.576 100 101.151" width="100pt" height="101.151pt"><defs><clipPath id="_clipPath_T30vAoJVI5yLqEWeA7FdiAyPTGf6meEs"><rect x="-34" y="-21.576" width="100" height="101.151"/></clipPath></defs><g clip-path="url(#_clipPath_T30vAoJVI5yLqEWeA7FdiAyPTGf6meEs)"><rect x="-34" y="-21.576" width="100" height="101.151" style="fill:rgb(0,0,0)" fill-opacity="0"/><g><path d=" M 47.091 76.916 C 45.807 77.808 44.179 76.713 44.207 74.977 L 44.558 53.387 C 44.585 51.703 46.16 50.671 47.417 51.514 L 63.048 61.996 C 64.307 62.84 64.32 64.942 63.073 65.809 L 47.091 76.916 L 47.091 76.916 L 47.091 76.916 L 47.091 76.916 L 47.091 76.916 L 47.091 76.916 L 47.091 76.916 Z " fill-rule="evenodd" fill="none" vector-effect="non-scaling-stroke" stroke-width="1" stroke="rgb(183,94,200)" stroke-opacity="100" stroke-linejoin="miter" stroke-linecap="butt" stroke-miterlimit="4"/><path d=" M 37.448 51.532 C 38.732 50.639 40.361 51.735 40.332 53.471 L 39.981 75.06 C 39.953 76.744 38.379 77.776 37.122 76.933 L 21.491 66.451 C 20.233 65.608 20.219 63.505 21.466 62.638 L 37.448 51.532 L 37.448 51.532 L 37.448 51.532 L 37.448 51.532 L 37.448 51.532 L 37.448 51.532 L 37.448 51.532 Z " fill-rule="evenodd" fill="none" vector-effect="non-scaling-stroke" stroke-width="1" stroke="rgb(183,94,188)" stroke-opacity="100" stroke-linejoin="miter" stroke-linecap="butt" stroke-miterlimit="4"/><path d=" M -28.031 8.628 C -29.221 9.483 -30.852 8.463 -30.852 6.68 L -30.852 -17.424 C -30.852 -18.641 -30.036 -19.576 -29.052 -19.576 L 4.497 -19.576 C 6.37 -19.576 7.109 -16.621 5.517 -15.476 L -28.031 8.628 L -28.031 8.628 L -28.031 8.628 L -28.031 8.628 L -28.031 8.628 Z " fill-rule="evenodd" fill="none" vector-effect="non-scaling-stroke" stroke-width="1" stroke="rgb(183,94,188)" stroke-opacity="100" stroke-linejoin="miter" stroke-linecap="butt" stroke-miterlimit="4"/><path d=" M 11.771 27.618 C 12.356 28.023 12.724 28.71 12.762 29.463 L 14.996 75.112 C 15.127 77.772 11.717 78.557 10.842 76.07 L -9.651 17.769 C -10.39 15.667 -8.233 13.757 -6.486 14.967 L 11.771 27.618 L 11.771 27.618 L 11.771 27.618 L 11.771 27.618 Z " fill-rule="evenodd" fill="none" vector-effect="non-scaling-stroke" stroke-width="1" stroke="rgb(183,94,188)" stroke-opacity="100" stroke-linejoin="miter" stroke-linecap="butt" stroke-miterlimit="4"/><path d=" M -30.239 21.572 C -30.725 22.038 -31.022 22.813 -31.039 23.655 L -31.999 74.718 C -32.055 77.692 -29.157 78.497 -28.469 75.698 L -12.339 10.103 C -11.758 7.738 -13.619 5.65 -15.07 7.041 L -30.239 21.572 L -30.239 21.572 L -30.239 21.572 Z " fill-rule="evenodd" fill="none" vector-effect="non-scaling-stroke" stroke-width="1" stroke="rgb(183,94,188)" stroke-opacity="100" stroke-linejoin="miter" stroke-linecap="butt" stroke-miterlimit="4"/><path d=" M 3.891 -8.939 C 5.002 -9.831 6.412 -8.736 6.387 -6.999 L 6.083 14.59 C 6.06 16.274 4.697 17.306 3.609 16.463 L -9.918 5.981 C -11.008 5.137 -11.02 3.035 -9.941 2.168 L 3.891 -8.939 Z " fill-rule="evenodd" fill="none" vector-effect="non-scaling-stroke" stroke-width="1" stroke="rgb(183,94,188)" stroke-opacity="100" stroke-linejoin="miter" stroke-linecap="butt" stroke-miterlimit="4"/><path d=" M 47.091 6.126 C 45.807 7.018 44.179 5.923 44.207 4.187 L 44.558 -17.403 C 44.585 -19.087 46.16 -20.119 47.417 -19.276 L 63.048 -8.794 C 64.307 -7.95 64.32 -5.848 63.073 -4.981 L 47.091 6.126 L 47.091 6.126 L 47.091 6.126 L 47.091 6.126 L 47.091 6.126 L 47.091 6.126 L 47.091 6.126 Z " fill-rule="evenodd" fill="none" vector-effect="non-scaling-stroke" stroke-width="1" stroke="rgb(183,94,188)" stroke-opacity="100" stroke-linejoin="miter" stroke-linecap="butt" stroke-miterlimit="4"/><path d=" M 37.448 -19.258 C 38.732 -20.151 40.361 -19.055 40.332 -17.319 L 39.981 4.27 C 39.953 5.954 38.379 6.986 37.122 6.143 L 21.491 -4.339 C 20.233 -5.182 20.219 -7.285 21.466 -8.152 L 37.448 -19.258 L 37.448 -19.258 L 37.448 -19.258 L 37.448 -19.258 L 37.448 -19.258 L 37.448 -19.258 L 37.448 -19.258 Z " fill-rule="evenodd" fill="none" vector-effect="non-scaling-stroke" stroke-width="1" stroke="rgb(183,94,188)" stroke-opacity="100" stroke-linejoin="miter" stroke-linecap="butt" stroke-miterlimit="4"/><path d=" M 21.466 -0.076 L 39.981 11.924 L 39.981 45.924 L 21.466 59.924 L 21.466 -0.076 Z " fill="none" vector-effect="non-scaling-stroke" stroke-width="1" stroke="rgb(183,94,188)" stroke-linejoin="miter" stroke-linecap="square" stroke-miterlimit="3"/></g></g></svg>