<?xml version="1.0" encoding="UTF-8" standalone="no"?>
<!-- Generator: Gravit.io -->
<svg xmlns="http://www.w3.org/2000/svg" xmlns:xlink="http://www.w3.org/1999/xlink" style="isolation:isolate" viewBox="386.405 120.938 410.595 400.124" width="410.595pt" height="400.124pt"><defs><clipPath id="_clipPath_5XhorEk5Nbxu1Ckhc0AY7cQUyVS7CP6d"><rect x="386.405" y="120.938" width="410.595" height="400.124"/></clipPath></defs><g clip-path="url(#_clipPath_5XhorEk5Nbxu1Ckhc0AY7cQUyVS7CP6d)"><clipPath id="_clipPath_rOtszPUZsRIb34coCkSGuKyQpIy28A9v"><rect x="386.405" y="120.938" width="410.595" height="400.124" transform="matrix(1,0,0,1,0,0)" fill="rgb(255,255,255)"/></clipPath><g clip-path="url(#_clipPath_rOtszPUZsRIb34coCkSGuKyQpIy28A9v)"><g><mask id="_mask_mjEBP6zKhLMiqeqLbJu05SfqMURzpJbc" x="-200%" y="-200%" width="400%" height="400%"><rect x="-200%" y="-200%" width="400%" height="400%" style="fill:white;"/><path d=" M 738.953 479.407 L 561.905 518.062 L 439.905 384.062 L 494.953 211.407 L 672 172.752 L 794 306.752 L 738.953 479.407 Z " fill="black" stroke="none"/></mask><path d=" M 738.953 479.407 L 561.905 518.062 L 439.905 384.062 L 494.953 211.407 L 672 172.752 L 794 306.752 L 738.953 479.407 Z " fill="none" mask="url(#_mask_mjEBP6zKhLMiqeqLbJu05SfqMURzpJbc)" vector-effect="non-scaling-stroke" stroke-width="4" stroke="rgb(183,94,200)" stroke-opacity="100" stroke-linejoin="miter" stroke-linecap="square" stroke-miterlimit="3"/><path d=" M 738.953 479.407 L 561.905 518.062 L 439.905 384.062 L 494.953 211.407 L 672 172.752 L 794 306.752 L 738.953 479.407 Z " fill="none"/><mask id="_mask_7TrX6AT0iIdpmDBJ0t4BJnCtLOD49AuK" x="-200%" y="-200%" width="400%" height="400%"><rect x="-200%" y="-200%" width="400%" height="400%" style="fill:white;"/><path d=" M 773 518.062 L 389.405 394.22 L 688.453 123.938 L 773 518.062 Z " fill="black" stroke="none"/></mask><path d=" M 773 518.062 L 389.405 394.22 L 688.453 123.938 L 773 518.062 Z " fill="none" mask="url(#_mask_7TrX6AT0iIdpmDBJ0t4BJnCtLOD49AuK)" vector-effect="non-scaling-stroke" stroke-width="4" stroke="rgb(250,114,104)" stroke-opacity="100" stroke-linejoin="miter" stroke-linecap="square" stroke-miterlimit="3"/><path d=" M 773 518.062 L 389.405 394.22 L 688.453 123.938 L 773 518.062 Z " fill="none"/></g></g></g></svg>