<?xml version="1.0" encoding="UTF-8" standalone="no"?>
<!-- Generator: Gravit.io -->
<svg xmlns="http://www.w3.org/2000/svg" xmlns:xlink="http://www.w3.org/1999/xlink" style="isolation:isolate" viewBox="-65 -18.576 100 101.151" width="100pt" height="101.151pt"><defs><clipPath id="_clipPath_Yr5AChAYUkN0KnHOSAeWo8hO0CwGBNbX"><rect x="-65" y="-18.576" width="100" height="101.151"/></clipPath></defs><g clip-path="url(#_clipPath_Yr5AChAYUkN0KnHOSAeWo8hO0CwGBNbX)"><g><path d=" M 16.091 79.916 C 14.807 80.808 13.179 79.713 13.207 77.977 L 13.558 56.387 C 13.585 54.703 15.16 53.671 16.417 54.514 L 32.048 64.996 C 33.307 65.84 33.32 67.942 32.073 68.809 L 16.091 79.916 L 16.091 79.916 L 16.091 79.916 L 16.091 79.916 L 16.091 79.916 L 16.091 79.916 L 16.091 79.916 Z " fill-rule="evenodd" fill="none" vector-effect="non-scaling-stroke" stroke-width="1" stroke="rgb(250,114,104)" stroke-opacity="100" stroke-linejoin="miter" stroke-linecap="butt" stroke-miterlimit="4"/><path d=" M 6.448 54.532 C 7.732 53.639 9.361 54.735 9.332 56.471 L 8.981 78.06 C 8.953 79.744 7.379 80.776 6.122 79.933 L -9.509 69.451 C -10.767 68.608 -10.781 66.505 -9.534 65.638 L 6.448 54.532 L 6.448 54.532 L 6.448 54.532 L 6.448 54.532 L 6.448 54.532 L 6.448 54.532 L 6.448 54.532 Z " fill-rule="evenodd" fill="none" vector-effect="non-scaling-stroke" stroke-width="1" stroke="rgb(250,114,104)" stroke-opacity="100" stroke-linejoin="miter" stroke-linecap="butt" stroke-miterlimit="4"/><path d=" M -59.031 11.628 C -60.221 12.483 -61.852 11.463 -61.852 9.68 L -61.852 -14.424 C -61.852 -15.641 -61.036 -16.576 -60.052 -16.576 L -26.503 -16.576 C -24.63 -16.576 -23.891 -13.621 -25.483 -12.476 L -59.031 11.628 L -59.031 11.628 L -59.031 11.628 L -59.031 11.628 L -59.031 11.628 Z " fill-rule="evenodd" fill="none" vector-effect="non-scaling-stroke" stroke-width="1" stroke="rgb(250,114,104)" stroke-opacity="100" stroke-linejoin="miter" stroke-linecap="butt" stroke-miterlimit="4"/><path d=" M -19.229 30.618 C -18.644 31.023 -18.275 31.71 -18.238 32.463 L -16.004 78.112 C -15.873 80.772 -19.283 81.557 -20.158 79.07 L -40.651 20.769 C -41.39 18.667 -39.233 16.757 -37.486 17.967 L -19.229 30.618 L -19.229 30.618 L -19.229 30.618 L -19.229 30.618 Z " fill-rule="evenodd" fill="none" vector-effect="non-scaling-stroke" stroke-width="1" stroke="rgb(250,114,104)" stroke-opacity="100" stroke-linejoin="miter" stroke-linecap="butt" stroke-miterlimit="4"/><path d=" M -61.239 24.572 C -61.725 25.038 -62.022 25.813 -62.039 26.655 L -62.999 77.718 C -63.055 80.692 -60.157 81.497 -59.469 78.698 L -43.339 13.103 C -42.758 10.738 -44.619 8.65 -46.07 10.041 L -61.239 24.572 L -61.239 24.572 L -61.239 24.572 Z " fill-rule="evenodd" fill="none" vector-effect="non-scaling-stroke" stroke-width="1" stroke="rgb(250,114,104)" stroke-opacity="100" stroke-linejoin="miter" stroke-linecap="butt" stroke-miterlimit="4"/><path d=" M -27.109 -5.939 C -25.998 -6.831 -24.588 -5.736 -24.613 -3.999 L -24.917 17.59 C -24.94 19.274 -26.303 20.306 -27.391 19.463 L -40.918 8.981 C -42.008 8.137 -42.02 6.035 -40.941 5.168 L -27.109 -5.939 Z " fill-rule="evenodd" fill="none" vector-effect="non-scaling-stroke" stroke-width="1" stroke="rgb(250,114,104)" stroke-opacity="100" stroke-linejoin="miter" stroke-linecap="butt" stroke-miterlimit="4"/><path d=" M 16.091 9.126 C 14.807 10.018 13.179 8.923 13.207 7.187 L 13.558 -14.403 C 13.585 -16.087 15.16 -17.119 16.417 -16.276 L 32.048 -5.794 C 33.307 -4.95 33.32 -2.848 32.073 -1.981 L 16.091 9.126 L 16.091 9.126 L 16.091 9.126 L 16.091 9.126 L 16.091 9.126 L 16.091 9.126 L 16.091 9.126 Z " fill-rule="evenodd" fill="none" vector-effect="non-scaling-stroke" stroke-width="1" stroke="rgb(250,114,104)" stroke-opacity="100" stroke-linejoin="miter" stroke-linecap="butt" stroke-miterlimit="4"/><path d=" M 6.448 -16.258 C 7.732 -17.151 9.361 -16.055 9.332 -14.319 L 8.981 7.27 C 8.953 8.954 7.379 9.986 6.122 9.143 L -9.509 -1.339 C -10.767 -2.182 -10.781 -4.285 -9.534 -5.152 L 6.448 -16.258 L 6.448 -16.258 L 6.448 -16.258 L 6.448 -16.258 L 6.448 -16.258 L 6.448 -16.258 L 6.448 -16.258 Z " fill-rule="evenodd" fill="none" vector-effect="non-scaling-stroke" stroke-width="1" stroke="rgb(250,114,104)" stroke-opacity="100" stroke-linejoin="miter" stroke-linecap="butt" stroke-miterlimit="4"/><path d=" M -9.534 2.924 L 8.981 14.924 L 8.981 48.924 L -9.534 62.924 L -9.534 2.924 Z " fill="none" vector-effect="non-scaling-stroke" stroke-width="1" stroke="rgb(250,114,104)" stroke-linejoin="miter" stroke-linecap="square" stroke-miterlimit="3"/></g></g></svg>