<?xml version="1.0" encoding="UTF-8" standalone="no"?><!-- Generator: Gravit.io --><svg xmlns="http://www.w3.org/2000/svg" xmlns:xlink="http://www.w3.org/1999/xlink" style="isolation:isolate" viewBox="24.668 0 462.664 512.003" width="462.664pt" height="512.003pt"><defs><clipPath id="_clipPath_0osyRCbLtxweKwi91P2fKJ2HjFGM77F1"><rect x="24.668" y="0" width="462.664" height="512.003"/></clipPath></defs><g clip-path="url(#_clipPath_0osyRCbLtxweKwi91P2fKJ2HjFGM77F1)"><g><g/><g><path d=" M 209.269 504.5 C 197.097 504.5 186.63 495.323 185.292 482.946 C 182.325 455.496 183.321 425.084 188.253 392.554 C 190.252 379.369 202.559 370.31 215.747 372.3 C 228.932 374.3 238 386.609 236.001 399.794 C 231.692 428.211 230.786 454.442 233.306 477.756 C 234.739 491.015 225.153 502.925 211.895 504.357 C 211.013 504.453 210.136 504.5 209.269 504.5 L 209.269 504.5 Z " fill="rgb(238,133,128)"/><path d=" M 104.721 365.82 C 93.651 365.82 83.672 358.161 81.172 346.905 C 78.279 333.886 86.488 320.988 99.507 318.096 C 101.237 317.712 103.529 317.15 106.182 316.498 C 123.066 312.351 154.498 304.628 189.997 305.996 C 203.323 306.508 213.711 317.726 213.199 331.051 C 212.687 344.378 201.486 354.795 188.143 354.253 C 159.415 353.153 133.305 359.564 117.701 363.397 C 114.768 364.117 112.235 364.739 109.981 365.241 C 108.217 365.631 106.454 365.82 104.721 365.82 L 104.721 365.82 Z " fill="rgb(238,133,128)"/><path d=" M 302.731 504.5 C 301.863 504.5 300.988 504.453 300.106 504.358 C 286.847 502.925 277.261 491.016 278.695 477.757 C 281.216 454.442 280.309 428.212 276.001 399.795 C 274.002 386.61 283.07 374.301 296.255 372.301 C 309.445 370.305 321.75 379.371 323.749 392.555 C 328.681 425.085 329.677 455.497 326.71 482.947 C 325.37 495.323 314.902 504.5 302.731 504.5 L 302.731 504.5 Z " fill="rgb(238,133,128)"/><path d=" M 407.279 365.82 C 405.544 365.82 403.783 365.632 402.019 365.241 C 399.765 364.74 397.232 364.117 394.299 363.397 C 378.695 359.564 352.58 353.151 323.857 354.253 C 310.539 354.788 299.313 344.377 298.801 331.051 C 298.289 317.725 308.677 306.507 322.003 305.996 C 357.506 304.643 388.934 312.35 405.818 316.498 C 408.472 317.15 410.763 317.713 412.493 318.096 C 425.512 320.989 433.72 333.887 430.828 346.905 C 428.328 358.16 418.349 365.82 407.279 365.82 L 407.279 365.82 Z " fill="rgb(238,133,128)"/><circle vector-effect="non-scaling-stroke" cx="57.449" cy="211.535" r="25.280999999999995" fill="rgb(255,255,0)"/><path d=" M 142.005 184.18 L 122.673 184.18 C 117.459 184.18 113.232 188.407 113.232 193.621 L 113.232 229.447 C 113.232 234.661 117.459 238.888 122.673 238.888 L 142.005 238.888 L 142.005 184.18 Z " fill="rgb(176,86,112)"/><path d=" M 232.349 41.748 C 227.368 28.716 233.904 14.092 246.935 9.111 C 259.967 4.13 274.591 10.666 279.572 23.699 C 284.553 36.731 278.017 51.355 264.986 56.336 C 251.954 61.317 237.33 54.781 232.349 41.748 Z " fill="rgb(255,255,0)"/><path d=" M 283.354 117.337 L 283.354 98.005 C 283.354 92.791 279.127 88.564 273.913 88.564 L 238.087 88.564 C 232.873 88.564 228.646 92.791 228.646 98.005 L 228.646 117.337 L 283.354 117.337 Z " fill="rgb(176,86,112)"/><circle vector-effect="non-scaling-stroke" cx="454.551" cy="211.535" r="25.281000000000006" fill="rgb(255,255,0)"/><path d=" M 369.995 184.18 L 389.327 184.18 C 394.541 184.18 398.768 188.407 398.768 193.621 L 398.768 229.447 C 398.768 234.661 394.541 238.888 389.327 238.888 L 369.995 238.888 L 369.995 184.18 Z " fill="rgb(176,86,112)"/><path d=" M 215.746 372.3 C 202.558 370.31 190.252 379.369 188.252 392.554 C 186.529 403.916 185.298 415.012 184.537 425.821 C 197.805 435.768 214.257 441.685 232.063 441.754 C 232.477 428.408 233.786 414.392 235.999 399.794 C 237.999 386.609 228.931 374.3 215.746 372.3 L 215.746 372.3 Z " fill="rgb(176,86,112)"/><path d=" M 323.747 392.554 C 321.748 379.37 309.443 370.303 296.253 372.3 C 283.068 374.3 274 386.609 275.999 399.794 C 278.212 414.393 279.521 428.409 279.935 441.754 C 297.741 441.684 314.193 435.768 327.461 425.821 C 326.701 415.012 325.47 403.916 323.747 392.554 Z " fill="rgb(176,86,112)"/><path d=" M 322.004 305.995 C 308.678 306.506 298.29 317.724 298.802 331.05 C 299.314 344.377 310.539 354.788 323.858 354.252 C 336.479 353.768 348.595 354.735 359.538 356.296 L 359.538 329.64 C 359.538 321.672 357.945 314.073 355.076 307.129 C 344.725 306.08 333.584 305.554 322.004 305.995 L 322.004 305.995 Z " fill="rgb(176,86,112)"/><path d=" M 189.996 305.995 C 178.417 305.549 167.277 306.073 156.927 307.122 C 154.056 314.067 152.462 321.669 152.462 329.639 L 152.462 356.297 C 163.405 354.736 175.52 353.769 188.142 354.252 C 201.485 354.794 212.686 344.376 213.198 331.05 C 213.71 317.725 203.323 306.507 189.996 305.995 L 189.996 305.995 Z " fill="rgb(176,86,112)"/><path d=" M 300.398 290.666 L 211.602 290.666 C 190.078 290.666 172.629 308.115 172.629 329.639 L 172.629 361.845 C 172.629 394.844 199.38 421.595 232.379 421.595 L 279.621 421.595 C 312.62 421.595 339.371 394.844 339.371 361.845 L 339.371 329.639 C 339.371 308.115 321.922 290.666 300.398 290.666 Z " fill="rgb(183,94,200)"/><path d=" M 226.712 331.117 C 226.571 328.279 228.833 325.898 231.675 325.898 L 303.62 325.898 C 315.77 325.898 327.337 323.37 337.84 318.83 C 333.153 302.566 318.17 290.666 300.398 290.666 L 211.602 290.666 C 190.078 290.666 172.629 308.115 172.629 329.639 L 172.629 361.845 C 172.629 394.844 199.38 421.595 232.379 421.595 L 255.259 421.595 C 236.344 400.296 228.413 365.395 226.712 331.117 L 226.712 331.117 Z " fill="rgb(191,123,202)"/><path d=" M 303.621 117.337 L 208.38 117.337 C 171.723 117.337 142.006 147.054 142.006 183.711 L 142.006 239.358 C 142.006 276.015 171.723 305.732 208.38 305.732 L 303.621 305.732 C 340.278 305.732 369.995 276.015 369.995 239.358 L 369.995 183.711 C 369.995 147.054 340.278 117.337 303.621 117.337 L 303.621 117.337 Z " fill="rgb(183,94,200)"/><path d=" M 190.906 119.678 C 162.729 127.35 142.005 153.103 142.005 183.711 L 142.005 239.358 C 142.005 276.015 171.722 305.732 208.379 305.732 L 210.268 305.732 C 182.738 263.889 174.915 181.816 190.906 119.678 L 190.906 119.678 Z " fill="rgb(191,123,202)"/><ellipse vector-effect="non-scaling-stroke" cx="178.186" cy="230.573" rx="28.71199999999999" ry="22.86500000000001" fill="rgb(255,255,255)"/><ellipse vector-effect="non-scaling-stroke" cx="333.814" cy="230.573" rx="28.71199999999999" ry="22.86500000000001" fill="rgb(255,255,255)"/><path d=" M 234.166 398.771 L 277.835 398.771 C 283.974 398.771 288.951 393.794 288.951 387.655 L 288.951 343.986 C 288.951 337.847 283.974 332.87 277.835 332.87 L 234.166 332.87 C 228.027 332.87 223.05 337.847 223.05 343.986 L 223.05 387.655 C 223.049 393.794 228.026 398.771 234.166 398.771 Z " fill="rgb(255,255,0)"/><path d=" M 240.915 398.771 C 232.642 380.319 228.434 357.92 226.97 335.522 C 224.574 337.561 223.049 340.594 223.049 343.986 L 223.049 387.655 C 223.049 393.794 228.026 398.771 234.166 398.771 L 240.915 398.771 Z " fill="rgb(239,209,118)"/><path d=" M 256 365.82 L 288.951 365.82 L 288.951 343.986 C 288.951 337.847 283.974 332.87 277.835 332.87 L 256 332.87 L 256 365.82 Z " fill="rgb(176,86,112)"/><path d=" M 223.049 365.82 L 256 365.82 L 256 332.869 L 234.166 332.869 C 228.027 332.869 223.05 337.846 223.05 343.985 L 223.05 365.82 L 223.049 365.82 Z " fill="rgb(255,255,255)"/><path d=" M 226.97 335.521 C 224.574 337.56 223.049 340.593 223.049 343.985 L 223.049 365.819 L 230.812 365.819 C 228.875 355.97 227.638 345.745 226.97 335.521 Z " fill="rgb(252,242,208)"/><path d=" M 256 398.771 L 277.834 398.771 C 283.973 398.771 288.95 393.794 288.95 387.655 L 288.95 365.82 L 256 365.82 L 256 398.771 Z " fill="rgb(78,86,96)"/><path d=" M 266.449 257.235 C 263.81 260.263 260.002 262 256 262 C 251.998 262 248.189 260.264 245.551 257.235 C 242.83 254.113 238.092 253.788 234.969 256.508 C 231.846 259.23 231.521 263.967 234.242 267.09 C 239.73 273.387 247.66 276.999 256 276.999 C 264.339 276.999 272.27 273.387 277.758 267.09 C 280.479 263.967 280.154 259.23 277.031 256.508 C 273.908 253.787 269.17 254.113 266.449 257.235 Z  M 212.7 211.535 L 212.7 221.674 C 212.7 225.817 216.058 229.174 220.2 229.174 C 224.342 229.174 227.7 225.817 227.7 221.674 L 227.7 211.535 C 227.7 207.392 224.342 204.035 220.2 204.035 C 216.058 204.035 212.7 207.392 212.7 211.535 Z  M 294.277 204.035 C 290.135 204.035 286.777 207.392 286.777 211.535 L 286.777 221.674 C 286.777 225.817 290.135 229.174 294.277 229.174 C 298.419 229.174 301.777 225.817 301.777 221.674 L 301.777 211.535 C 301.777 207.392 298.419 204.035 294.277 204.035 Z  M 277.835 325.369 L 234.166 325.369 C 223.901 325.369 215.55 333.721 215.55 343.985 L 215.55 387.654 C 215.55 397.919 223.901 406.27 234.166 406.27 L 277.835 406.27 C 288.1 406.27 296.451 397.918 296.451 387.654 L 296.451 343.985 C 296.451 333.721 288.1 325.369 277.835 325.369 Z  M 248.5 391.271 L 234.165 391.271 C 232.171 391.271 230.549 389.649 230.549 387.655 L 230.549 373.32 L 248.5 373.32 L 248.5 391.271 Z  M 248.5 358.32 L 230.549 358.32 L 230.549 343.985 C 230.549 341.991 232.171 340.369 234.165 340.369 L 248.5 340.369 L 248.5 358.32 Z  M 281.451 387.654 C 281.451 389.648 279.829 391.27 277.835 391.27 L 263.5 391.27 L 263.5 373.32 L 281.451 373.32 L 281.451 387.654 Z  M 281.451 358.32 L 263.5 358.32 L 263.5 340.369 L 277.835 340.369 C 279.829 340.369 281.451 341.991 281.451 343.985 L 281.451 358.32 Z  M 454.551 178.754 C 439.057 178.754 426.048 189.563 422.647 204.034 L 406.269 204.034 L 406.269 193.621 C 406.269 184.28 398.669 176.681 389.328 176.681 L 377.144 176.681 C 375.777 162.497 370.32 148.864 361.415 137.693 C 358.832 134.453 354.114 133.92 350.875 136.504 C 347.636 139.086 347.103 143.805 349.686 147.043 C 358.066 157.556 362.496 170.235 362.496 183.712 L 362.496 239.359 C 362.496 271.822 336.085 298.233 303.622 298.233 L 208.381 298.233 C 175.918 298.233 149.507 271.822 149.507 239.359 L 149.507 183.712 C 149.507 151.249 175.918 124.838 208.381 124.838 L 303.622 124.838 C 310.761 124.838 317.735 126.1 324.35 128.588 C 328.225 130.046 332.552 128.086 334.01 124.209 C 335.468 120.332 333.508 116.007 329.631 114.549 C 321.322 111.423 312.571 109.838 303.622 109.838 L 290.856 109.838 L 290.856 98.005 C 290.856 88.663 283.256 81.064 273.915 81.064 L 263.5 81.064 L 263.5 64.685 C 277.971 61.283 288.78 48.275 288.78 32.781 C 288.78 14.705 274.075 0 256 0 C 237.925 0 223.22 14.705 223.22 32.78 C 223.22 48.274 234.029 61.283 248.5 64.684 L 248.5 81.063 L 238.087 81.063 C 228.746 81.063 221.146 88.663 221.146 98.004 L 221.146 109.836 L 208.38 109.836 C 170.017 109.836 138.402 139.232 134.849 176.68 L 122.674 176.68 C 113.333 176.68 105.733 184.28 105.733 193.62 L 105.733 204.033 L 89.354 204.033 C 85.952 189.562 72.944 178.753 57.449 178.753 C 39.374 178.753 24.668 193.458 24.668 211.533 C 24.668 229.608 39.373 244.314 57.449 244.314 C 72.943 244.314 85.952 233.504 89.354 219.033 L 105.732 219.033 L 105.732 229.447 C 105.732 238.788 113.332 246.388 122.673 246.388 L 134.848 246.388 C 136.891 267.922 148.214 286.785 164.767 298.935 C 139.01 300.717 117.131 306.085 104.391 309.214 C 101.908 309.824 99.561 310.402 97.879 310.775 C 80.844 314.56 70.065 331.498 73.85 348.532 C 77.04 362.896 90.024 373.321 104.721 373.321 C 107.024 373.321 109.341 373.066 111.607 372.562 C 113.963 372.039 116.648 371.378 119.489 370.68 C 130.592 367.954 146.678 364.006 165.142 362.376 C 165.261 377.675 170.518 391.764 179.264 403.021 C 176.483 425.269 175.538 446.62 176.498 466.511 C 176.692 470.526 180.007 473.65 183.983 473.65 C 184.105 473.65 184.228 473.647 184.351 473.641 C 188.488 473.442 191.68 469.925 191.48 465.789 C 190.725 450.149 191.21 433.527 192.884 416.23 C 202.163 422.988 213.223 427.437 225.222 428.713 C 223.975 446.424 224.184 463.161 225.849 478.564 C 226.327 482.985 225.055 487.328 222.267 490.792 C 219.479 494.256 215.509 496.426 211.085 496.904 C 206.652 497.383 202.182 496.046 198.743 493.226 C 195.539 490.602 190.813 491.069 188.188 494.272 C 185.562 497.476 186.03 502.202 189.234 504.828 C 194.879 509.455 201.994 512.003 209.269 512.003 C 210.409 512.003 211.565 511.94 212.7 511.818 C 221.104 510.91 228.652 506.783 233.952 500.198 C 239.252 493.613 241.67 485.358 240.762 476.953 C 239.171 462.24 238.999 446.169 240.236 429.1 L 271.764 429.1 C 273.001 446.169 272.829 462.24 271.238 476.954 C 270.33 485.358 272.748 493.613 278.048 500.198 C 283.348 506.783 290.896 510.91 299.296 511.817 C 300.435 511.941 301.591 512.003 302.731 512.003 C 318.91 512.003 332.423 499.859 334.165 483.755 C 336.84 459.013 336.356 431.86 332.747 403.01 C 341.487 391.755 346.739 377.671 346.858 362.378 C 365.322 364.008 381.408 367.957 392.51 370.682 C 395.352 371.38 398.037 372.04 400.394 372.564 C 402.66 373.068 404.976 373.323 407.28 373.323 C 421.977 373.323 434.96 362.898 438.151 348.535 C 441.936 331.5 431.157 314.562 414.119 310.776 C 412.439 310.404 410.093 309.827 407.608 309.216 C 394.87 306.087 372.991 300.719 347.234 298.937 C 363.786 286.787 375.109 267.925 377.152 246.39 L 389.328 246.39 C 398.669 246.39 406.269 238.79 406.269 229.449 L 406.269 219.035 L 422.647 219.035 C 426.049 233.506 439.057 244.316 454.551 244.316 C 472.626 244.316 487.332 229.61 487.332 211.535 C 487.332 193.46 472.626 178.754 454.551 178.754 L 454.551 178.754 Z  M 238.22 32.78 C 238.22 22.976 246.196 15 256 15 C 265.804 15 273.78 22.977 273.78 32.78 C 273.78 42.583 265.804 50.56 256 50.56 C 246.196 50.561 238.22 42.584 238.22 32.78 L 238.22 32.78 Z  M 236.145 98.005 C 236.145 96.935 237.016 96.064 238.086 96.064 L 273.912 96.064 C 274.982 96.064 275.853 96.935 275.853 98.005 L 275.853 109.837 L 236.144 109.837 L 236.144 98.005 L 236.145 98.005 Z  M 57.449 229.315 C 47.645 229.315 39.668 221.338 39.668 211.534 C 39.668 201.73 47.644 193.754 57.449 193.754 C 67.254 193.754 75.23 201.731 75.23 211.534 C 75.229 221.339 67.253 229.315 57.449 229.315 Z  M 134.505 231.389 L 122.673 231.389 C 121.603 231.389 120.732 230.519 120.732 229.448 L 120.732 193.621 C 120.732 192.551 121.603 191.681 122.673 191.681 L 134.505 191.681 L 134.505 231.389 Z  M 165.129 329.64 L 165.129 347.329 C 145.002 348.981 127.744 353.208 115.91 356.113 C 113.031 356.82 110.546 357.431 108.353 357.919 C 107.153 358.186 105.931 358.32 104.72 358.32 C 96.996 358.32 90.171 352.836 88.492 345.278 C 86.501 336.317 92.171 327.408 101.129 325.418 C 102.975 325.008 105.402 324.412 107.969 323.78 C 120.574 320.685 142.497 315.306 167.897 313.765 C 166.081 318.778 165.129 324.125 165.129 329.64 L 165.129 329.64 Z  M 319.251 482.14 C 318.335 490.612 311.232 497 302.73 497 C 302.128 497 301.518 496.967 300.91 496.9 C 296.49 496.423 292.52 494.253 289.732 490.789 C 286.944 487.325 285.672 482.982 286.15 478.562 C 287.815 463.158 288.024 446.421 286.777 428.71 C 298.78 427.434 309.843 422.982 319.125 416.22 C 321.4 439.682 321.45 461.802 319.251 482.14 L 319.251 482.14 Z  M 331.871 361.846 C 331.871 390.657 308.431 414.096 279.62 414.096 L 232.379 414.096 C 203.568 414.096 180.128 390.657 180.128 361.846 L 180.128 329.64 C 180.128 322.413 182.538 315.604 186.975 310.06 C 193.754 312.116 200.937 313.233 208.379 313.233 L 303.62 313.233 C 311.062 313.233 318.245 312.116 325.024 310.06 C 329.461 315.604 331.87 322.413 331.87 329.64 L 331.87 361.846 L 331.871 361.846 Z  M 404.028 323.78 C 406.597 324.412 409.024 325.008 410.867 325.417 C 419.828 327.408 425.498 336.317 423.507 345.278 C 421.828 352.836 415.003 358.32 407.279 358.32 C 406.068 358.32 404.846 358.185 403.647 357.919 C 401.454 357.432 398.968 356.82 396.088 356.113 C 384.256 353.207 366.998 348.98 346.871 347.329 L 346.871 329.64 C 346.871 324.126 345.918 318.778 344.101 313.766 C 369.502 315.306 391.425 320.685 404.028 323.78 L 404.028 323.78 Z  M 391.269 229.448 C 391.269 230.518 390.398 231.389 389.328 231.389 L 377.496 231.389 L 377.496 191.681 L 389.328 191.681 C 390.398 191.681 391.269 192.551 391.269 193.621 L 391.269 229.448 Z  M 467.118 224.101 C 463.898 227.321 459.453 229.315 454.551 229.315 C 444.747 229.315 436.771 221.338 436.771 211.534 C 436.771 201.73 444.747 193.754 454.551 193.754 C 464.355 193.754 472.332 201.731 472.332 211.534 C 472.332 216.436 470.338 220.882 467.118 224.101 Z " fill="rgb(0,0,0)"/></g></g></g></svg>