<?xml version="1.0" encoding="UTF-8" standalone="no"?>
<!-- Generator: Gravit.io -->
<svg xmlns="http://www.w3.org/2000/svg" xmlns:xlink="http://www.w3.org/1999/xlink" style="isolation:isolate" viewBox="421.405 125.938 410 400" width="410pt" height="400pt"><defs><clipPath id="_clipPath_ZVSePOIh7Neebg93qz4zPcSl0ywURtMf"><rect x="421.405" y="125.938" width="410.595" height="400.124"/></clipPath></defs><g clip-path="url(#_clipPath_ZVSePOIh7Neebg93qz4zPcSl0ywURtMf)"><clipPath id="_clipPath_OA2LnJZ0mNrN08BnlvrM29brlZkNy3bw"><rect x="421.405" y="125.938" width="410.595" height="400.124" transform="matrix(1,0,0,1,0,0)" fill="rgb(255,255,255)"/></clipPath><g clip-path="url(#_clipPath_OA2LnJZ0mNrN08BnlvrM29brlZkNy3bw)"><g><mask id="_mask_dNhV0tHkUUPoFdYozH0vgpHAtypnPlcX" x="-200%" y="-200%" width="400%" height="400%"><rect x="-200%" y="-200%" width="400%" height="400%" style="fill:white;"/><path d=" M 773.953 484.407 L 596.905 523.062 L 474.905 389.062 L 529.953 216.407 L 707 177.752 L 829 311.752 L 773.953 484.407 Z " fill="black" stroke="none"/></mask><path d=" M 773.953 484.407 L 596.905 523.062 L 474.905 389.062 L 529.953 216.407 L 707 177.752 L 829 311.752 L 773.953 484.407 Z " fill="none" mask="url(#_mask_dNhV0tHkUUPoFdYozH0vgpHAtypnPlcX)" vector-effect="non-scaling-stroke" stroke-width="4" stroke="rgb(183,94,200)" stroke-opacity="100" stroke-linejoin="miter" stroke-linecap="square" stroke-miterlimit="3"/><path d=" M 773.953 484.407 L 596.905 523.062 L 474.905 389.062 L 529.953 216.407 L 707 177.752 L 829 311.752 L 773.953 484.407 Z " fill="none"/><mask id="_mask_2G6jABzpxez8VznfUsibixyyvmWC1Nwo" x="-200%" y="-200%" width="400%" height="400%"><rect x="-200%" y="-200%" width="400%" height="400%" style="fill:white;"/><path d=" M 808 523.062 L 424.405 399.22 L 723.453 128.938 L 808 523.062 Z " fill="black" stroke="none"/></mask><path d=" M 808 523.062 L 424.405 399.22 L 723.453 128.938 L 808 523.062 Z " fill="none" mask="url(#_mask_2G6jABzpxez8VznfUsibixyyvmWC1Nwo)" vector-effect="non-scaling-stroke" stroke-width="4" stroke="rgb(250,114,104)" stroke-opacity="100" stroke-linejoin="miter" stroke-linecap="square" stroke-miterlimit="3"/><path d=" M 808 523.062 L 424.405 399.22 L 723.453 128.938 L 808 523.062 Z " fill="none"/></g></g></g></svg>