<svg width="79" height="71" viewBox="0 0 79 71" fill="none" xmlns="http://www.w3.org/2000/svg">
<path d="M41.52 62.5383C40.5217 61.9647 40.5151 60.5269 41.508 59.9441L54.425 52.3623C55.4218 51.7772 56.678 52.4919 56.6843 53.6477L56.7661 68.699C56.7724 69.856 55.522 70.5842 54.5188 70.0078L41.52 62.5383ZM2.48046 26.4467L12.9838 19.7712C12.8183 20.7766 13.2613 21.8673 14.2987 22.4055L16.454 23.5238L4.73063 65.858C4.26451 67.5413 1.78504 67.2043 1.78504 65.4577V27.7126C1.78504 27.1995 2.04736 26.7219 2.48046 26.4467ZM16.7268 22.5387L14.7592 21.5179C13.707 20.972 13.6739 19.4788 14.7009 18.8869L15.9873 18.1453C16.8989 18.1576 17.6979 19.0318 17.4157 20.0509L16.7268 22.5387ZM17.634 23.0094L18.3794 20.3178C18.7204 19.0865 18.1144 17.9821 17.1764 17.4599L29.5359 10.3357C30.5359 9.75929 31.785 10.481 31.785 11.6353V27.8832C31.785 29.0081 30.5927 29.7327 29.5942 29.2146L17.634 23.0094ZM62.2609 66.9741C61.2502 67.5792 59.9683 66.8366 59.9906 65.6588L60.2671 51.0181C60.2886 49.8759 61.528 49.1761 62.5172 49.7476L74.8207 56.8558C75.8112 57.4281 75.8223 58.8539 74.8409 59.4416L62.2609 66.9741ZM61.4166 26.6442C61.9337 26.3248 62.5924 26.349 63.0846 26.7055L75.673 35.8212C76.0625 36.1033 76.2932 36.5551 76.2932 37.0361V51.4731C76.2932 52.6406 75.0182 53.3605 74.0185 52.7575L48.3572 37.2793C47.3961 36.6996 47.3888 35.3084 48.3437 34.7186L61.4166 26.6442ZM3.24935 23.2151C2.30053 23.8083 1.00001 23.1007 1.00001 21.8634L1 5.13669C1 4.29227 1.65095 3.64335 2.4354 3.64335H29.1865C30.6804 3.64335 31.27 5.69454 30.0004 6.48835L3.24935 23.2151ZM32.8582 36.9765C33.2663 37.2368 33.5238 37.678 33.5495 38.1614L35.1093 67.4851C35.2002 69.1931 32.8202 69.6978 32.2101 68.0999L17.9112 30.6503C17.3956 29.2999 18.9005 28.0732 20.1192 28.8506L32.8582 36.9765ZM57.7426 1.21222C58.214 0.930676 58.8015 0.929167 59.2743 1.20829L77.121 11.7439C78.1029 12.3236 78.1046 13.7436 77.1239 14.3256L44.0505 33.9515C43.0506 34.5449 41.785 33.8242 41.785 32.6615V11.5947C41.785 11.0667 42.0626 10.5777 42.5159 10.3069L57.7426 1.21222Z" stroke="#FA7268"/>
</svg>
