<?xml version="1.0" encoding="UTF-8" standalone="no"?><!-- Generator: Gravit.io --><svg xmlns="http://www.w3.org/2000/svg" xmlns:xlink="http://www.w3.org/1999/xlink" style="isolation:isolate" viewBox="-1 24.997 511.001 463.048" width="511.001pt" height="463.048pt"><defs><clipPath id="_clipPath_FJz3gwzc69vFnqGBFsaKSKR5NOyTRSil"><rect x="-1" y="24.997" width="511.001" height="463.048"/></clipPath></defs><g clip-path="url(#_clipPath_FJz3gwzc69vFnqGBFsaKSKR5NOyTRSil)"><g><path d=" M 478.531 256.521 C 478.531 380.247 378.231 480.551 254.5 480.551 C 130.77 480.551 30.47 380.247 30.47 256.521 C 30.47 132.79 130.77 32.49 254.5 32.49 C 378.231 32.49 478.531 132.79 478.531 256.521 Z " fill="rgb(188,107,199)"/><path d=" M 478.531 256.521 C 478.531 380.247 378.231 480.551 254.5 480.551 C 231.592 480.551 209.483 477.113 188.664 470.719 C 198.274 471.978 208.076 472.629 218.037 472.629 C 341.763 472.629 442.067 372.325 442.067 248.598 C 442.067 147.776 375.471 62.521 283.873 34.396 C 393.724 48.782 478.531 142.751 478.531 256.521 L 478.531 256.521 Z " fill="rgb(188,107,199)"/><path d=" M 491.444 313.117 L 17.557 313.117 C 11.448 313.117 6.493 308.166 6.493 302.053 L 6.493 234.614 C 6.493 228.505 11.444 223.55 17.557 223.55 L 491.444 223.55 C 497.557 223.55 502.508 228.505 502.508 234.614 L 502.508 302.053 C 502.508 308.166 497.557 313.117 491.444 313.117 Z " fill="rgb(231,231,231)"/><path d=" M 491.444 313.464 L 404.356 313.464 L 404.356 222.552 L 491.444 222.552 C 497.553 222.552 502.508 227.507 502.508 233.616 L 502.508 302.4 C 502.508 308.513 497.557 313.464 491.444 313.464 Z " fill="rgb(201,240,255)"/><path d=" M 456.793 247.172 L 461.28 256.259 C 461.826 257.367 462.882 258.131 464.102 258.31 L 474.134 259.768 C 477.21 260.213 478.438 263.994 476.212 266.162 L 468.952 273.238 C 468.067 274.099 467.666 275.339 467.876 276.556 L 469.588 286.544 C 470.114 289.608 466.898 291.943 464.149 290.497 L 455.175 285.78 C 454.083 285.207 452.777 285.207 451.685 285.78 L 442.715 290.497 C 439.966 291.943 436.75 289.608 437.276 286.544 L 438.987 276.556 C 439.198 275.339 438.793 274.099 437.911 273.238 L 430.652 266.162 C 428.426 263.994 429.654 260.213 432.73 259.768 L 442.761 258.31 C 443.982 258.131 445.038 257.367 445.584 256.259 L 450.071 247.172 C 451.444 244.384 455.42 244.384 456.793 247.172 L 456.793 247.172 Z " fill="rgb(255,216,110)"/><path d=" M 491.444 313.117 L 477.943 313.117 L 477.943 223.554 L 491.444 223.554 C 497.553 223.554 502.508 228.505 502.508 234.618 L 502.508 302.056 C 502.508 308.166 497.557 313.117 491.444 313.117 L 491.444 313.117 Z " fill="rgb(154,231,253)"/><path d=" M 491.444 215.059 L 482.321 215.059 C 474.04 169 452.005 126.599 418.212 92.809 C 374.485 49.078 316.341 24.997 254.5 24.997 C 192.66 24.997 134.516 49.078 90.789 92.809 C 56.754 126.844 34.637 169.612 26.497 216.061 L 17.557 216.061 C 7.324 216.061 -1 224.384 -1 234.618 L -1 302.056 C -1 312.286 7.324 320.614 17.557 320.614 L 32.033 320.614 C 44.396 363.546 69.047 402.434 103.705 432.208 C 106.844 434.902 111.573 434.547 114.271 431.409 C 116.969 428.267 116.61 423.538 113.472 420.84 C 104.505 413.14 96.259 404.781 88.77 395.877 C 100.224 391.05 111.928 387.07 123.717 383.807 C 129.316 393.686 135.596 403.218 142.563 412.321 C 157.826 432.271 175.062 449.822 193.432 464.29 C 178.169 459.818 163.409 453.674 149.487 445.935 C 145.869 443.928 141.308 445.23 139.3 448.848 C 137.288 452.466 138.59 457.027 142.208 459.039 C 176.364 478.013 215.195 488.044 254.5 488.044 C 316.341 488.044 374.481 463.963 418.212 420.232 C 446.301 392.146 466.258 358.099 476.956 320.957 L 491.444 320.957 C 501.677 320.957 510.001 312.633 510.001 302.4 L 510.001 233.616 C 510.001 223.386 501.677 215.059 491.444 215.059 L 491.444 215.059 Z  M 467.065 215.059 L 414.941 215.059 C 414.317 211.176 413.627 207.293 412.824 203.413 C 408.372 181.92 401.413 161.398 392.06 142.026 C 393.44 141.647 394.828 141.277 396.2 140.887 C 405.74 138.158 417.884 134.447 429.814 129.343 C 448.446 154.922 461.089 184.076 467.065 215.059 Z  M 399.919 216.061 L 322.493 216.061 C 322.235 212.302 321.955 208.544 321.623 204.794 C 320.138 188.029 317.947 171.799 315.124 156.279 C 336.602 154.049 357.346 150.56 377.249 145.827 C 386.742 164.887 393.74 185.168 398.149 206.454 C 398.812 209.651 399.385 212.856 399.919 216.061 L 399.919 216.061 Z  M 407.615 103.402 C 412.028 107.815 416.219 112.392 420.2 117.106 C 410.22 121.113 400.177 124.162 392.079 126.478 C 389.732 127.148 387.37 127.792 384.999 128.423 C 380.262 119.932 375.058 111.679 369.358 103.694 C 354.422 82.782 336.711 64.474 316.489 48.946 C 350.559 59.074 381.779 77.566 407.615 103.402 Z  M 277.608 41.207 C 309.428 59.094 336.196 83.039 357.163 112.404 C 361.732 118.809 365.962 125.402 369.877 132.154 C 351.37 136.376 332.114 139.507 312.196 141.523 C 303.522 101.137 290.383 66.349 273.927 40.852 C 275.155 40.958 276.383 41.075 277.608 41.207 Z  M 254.5 39.983 C 254.684 39.983 254.863 39.987 255.046 39.987 C 273.253 64.014 287.81 99.905 297.187 142.825 C 281.179 143.979 264.781 144.451 248.021 144.205 C 236.645 144.041 224.469 143.686 211.795 142.914 C 221.171 99.956 235.736 64.03 253.955 39.987 C 254.138 39.987 254.317 39.983 254.5 39.983 L 254.5 39.983 Z  M 235.074 40.852 C 218.575 66.408 205.417 101.301 196.742 141.803 C 177.931 140.166 158.29 137.456 138.641 132.981 C 142.688 125.936 147.078 119.067 151.838 112.4 C 172.805 83.039 199.573 59.094 231.393 41.203 C 232.617 41.075 233.846 40.958 235.074 40.852 Z  M 193.818 156.595 C 191.023 172.018 188.851 188.142 187.378 204.794 C 187.046 208.544 186.766 212.302 186.512 216.061 L 109.074 216.061 C 109.604 212.856 110.189 209.651 110.852 206.454 C 115.195 185.48 122.064 165.488 131.343 146.669 C 152.497 151.745 173.631 154.774 193.818 156.595 Z  M 101.386 103.402 C 127.222 77.566 158.442 59.074 192.512 48.946 C 172.286 64.474 154.575 82.782 139.643 103.694 C 133.772 111.916 128.427 120.431 123.581 129.195 C 111.834 125.94 100.169 121.967 88.758 117.156 C 92.75 112.427 96.957 107.835 101.386 103.402 Z  M 79.179 129.359 C 91.444 134.743 103.974 139.156 116.579 142.778 C 107.409 161.932 100.571 182.197 96.177 203.413 C 95.308 207.624 94.555 211.842 93.897 216.061 L 41.741 216.061 C 47.635 184.708 60.353 155.207 79.179 129.359 Z  M 17.557 305.628 C 15.589 305.628 13.986 304.025 13.986 302.053 L 13.986 234.614 C 13.986 232.645 15.589 231.043 17.557 231.043 L 233.853 231.043 C 237.994 231.043 241.347 227.69 241.347 223.55 C 241.347 219.413 237.994 216.057 233.853 216.057 L 201.526 216.057 C 201.76 212.743 202.013 209.425 202.306 206.115 C 203.791 189.347 205.99 173.164 208.828 157.745 C 222.497 158.622 235.596 159.012 247.807 159.187 C 250.762 159.23 253.709 159.254 256.649 159.254 C 271.432 159.254 285.939 158.7 300.153 157.624 C 302.999 173.078 305.206 189.304 306.695 206.115 C 306.988 209.425 307.245 212.743 307.479 216.057 L 280.637 216.057 C 276.5 216.057 273.144 219.413 273.144 223.55 C 273.144 227.69 276.5 231.043 280.637 231.043 L 396.863 231.043 L 396.863 305.624 L 17.557 305.624 L 17.557 305.628 Z  M 395.066 320.61 C 390.75 336.719 384.777 352.337 377.202 367.199 C 357.335 362.477 336.637 358.98 315.198 356.75 C 317.35 345.035 319.116 332.957 320.481 320.614 L 395.066 320.614 L 395.066 320.61 Z  M 305.42 320.61 C 304.068 332.513 302.329 344.146 300.22 355.421 C 283.159 354.127 265.678 353.589 247.807 353.85 C 235.573 354.025 222.45 354.415 208.758 355.296 C 206.66 344.06 204.929 332.47 203.581 320.61 L 305.42 320.61 Z  M 79.226 383.663 C 65.308 364.481 54.657 343.179 47.667 320.61 L 98.473 320.61 C 102.778 337.748 108.82 354.392 116.575 370.263 C 103.986 373.881 91.472 378.286 79.226 383.663 Z  M 113.951 320.61 L 188.508 320.61 C 189.861 332.852 191.616 344.832 193.744 356.454 C 173.588 358.271 152.489 361.3 131.374 366.36 C 124.002 351.752 118.185 336.415 113.951 320.61 Z  M 231.319 471.787 C 203.284 455.994 176.723 432.306 154.466 403.214 C 148.766 395.772 143.569 388.013 138.844 380.01 C 158.411 375.565 177.967 372.871 196.699 371.238 C 199.662 384.848 203.175 397.877 207.222 410.123 C 213.195 428.169 222.571 452.243 235.179 472.177 C 233.892 472.064 232.606 471.928 231.319 471.787 Z  M 254.5 473.058 C 254.317 473.058 254.138 473.05 253.955 473.05 C 242.157 457.421 230.937 434.091 221.452 405.417 C 217.768 394.279 214.551 382.458 211.799 370.123 C 224.473 369.355 236.645 368.996 248.021 368.832 C 264.781 368.594 281.175 369.066 297.183 370.22 C 294.434 382.52 291.222 394.31 287.549 405.417 C 278.068 434.091 266.844 457.421 255.046 473.05 C 254.863 473.054 254.684 473.058 254.5 473.058 L 254.5 473.058 Z  M 273.807 472.2 C 286.422 452.263 295.806 428.177 301.775 410.123 C 305.799 397.963 309.288 385.035 312.235 371.526 C 332.068 373.534 351.237 376.641 369.666 380.836 C 365.073 388.548 360.036 396.029 354.535 403.214 C 332.255 432.333 305.666 456.041 277.604 471.834 C 276.341 471.967 275.074 472.087 273.807 472.2 L 273.807 472.2 Z  M 407.615 409.635 C 381.51 435.74 349.908 454.345 315.428 464.399 C 333.849 449.912 351.136 432.321 366.438 412.321 C 373.225 403.456 379.354 394.177 384.839 384.571 C 387.264 385.218 389.682 385.877 392.079 386.559 C 400.169 388.875 410.204 391.924 420.181 395.928 C 416.2 400.641 412.028 405.226 407.615 409.635 L 407.615 409.635 Z  M 448.164 353.551 C 442.902 364.036 436.765 374.111 429.791 383.686 C 417.869 378.59 405.732 374.879 396.2 372.154 C 394.828 371.76 393.44 371.394 392.06 371.015 C 399.939 355.027 406.071 338.24 410.438 320.957 L 461.292 320.957 C 457.814 332.171 453.426 343.066 448.164 353.551 Z  M 495.015 302.056 C 495.015 304.025 493.412 305.628 491.444 305.628 L 411.845 305.628 L 411.845 231.043 L 491.444 231.043 C 493.412 231.043 495.015 232.649 495.015 234.618 L 495.015 302.056 Z " fill="rgb(0,0,0)"/><path d=" M 475.21 252.353 L 467.128 251.179 L 463.514 243.854 C 461.603 239.986 457.744 237.589 453.432 237.589 C 449.12 237.589 445.256 239.99 443.35 243.854 L 439.736 251.179 L 431.654 252.353 C 427.385 252.973 423.911 255.905 422.578 260.002 C 421.245 264.103 422.336 268.52 425.424 271.53 L 431.272 277.23 L 429.892 285.281 C 429.159 289.526 430.874 293.741 434.364 296.275 C 437.849 298.809 442.383 299.14 446.204 297.133 L 453.432 293.331 L 460.66 297.133 C 462.321 298.002 464.114 298.435 465.904 298.435 C 468.223 298.435 470.531 297.706 472.5 296.275 C 475.985 293.741 477.701 289.526 476.972 285.281 L 475.592 277.23 L 481.44 271.53 C 484.527 268.52 485.615 264.103 484.286 260.002 C 482.952 255.905 479.475 252.973 475.21 252.353 L 475.21 252.353 Z  M 463.72 267.873 C 461.073 270.458 459.865 274.177 460.488 277.823 L 460.921 280.337 L 458.664 279.152 C 455.389 277.429 451.479 277.429 448.2 279.152 L 445.943 280.337 L 446.371 277.823 C 446.999 274.177 445.791 270.458 443.14 267.873 L 441.315 266.092 L 443.837 265.725 C 447.498 265.195 450.664 262.895 452.305 259.577 L 453.432 257.289 L 454.563 259.577 C 456.2 262.895 459.366 265.195 463.026 265.725 L 465.549 266.092 L 463.72 267.873 Z " fill="rgb(0,0,0)"/><path d=" M 55.706 282.828 C 55.706 283.936 54.041 285.097 52.103 285.097 C 50.002 285.097 48.559 283.936 48.559 282.828 L 48.559 245.678 C 48.559 244.349 50.002 243.46 52.103 243.46 C 54.041 243.46 55.706 244.349 55.706 245.678 L 55.706 262.673 C 56.7 260.517 59.191 258.466 62.68 258.466 C 67.772 258.466 72.201 263.561 72.201 269.706 L 72.201 282.825 C 72.201 284.322 70.376 285.097 68.602 285.097 C 66.941 285.097 65.058 284.322 65.058 282.825 L 65.058 269.706 C 65.058 267.214 62.844 264.723 60.244 264.723 C 57.975 264.723 55.702 266.602 55.702 269.706 L 55.702 282.828 L 55.706 282.828 Z " fill="rgb(0,0,0)"/><path d=" M 87.928 276.127 C 87.928 278.287 88.704 279.062 91.031 279.062 L 93.191 279.062 C 95.238 279.062 96.236 280.559 96.236 282.053 C 96.236 283.604 95.238 285.097 93.191 285.097 L 91.031 285.097 C 84.388 285.097 80.789 282.384 80.789 276.127 L 80.789 249.277 C 80.789 247.947 82.668 247.062 84.333 247.062 C 86.158 247.062 87.932 247.947 87.932 249.277 L 87.932 258.797 L 94.466 258.797 C 95.628 258.797 96.29 260.127 96.29 261.402 C 96.29 262.727 95.628 264.002 94.466 264.002 L 87.932 264.002 L 87.932 276.127 L 87.928 276.127 Z " fill="rgb(0,0,0)"/><path d=" M 110.466 276.127 C 110.466 278.287 111.238 279.062 113.565 279.062 L 115.725 279.062 C 117.772 279.062 118.77 280.559 118.77 282.053 C 118.77 283.604 117.772 285.097 115.725 285.097 L 113.565 285.097 C 106.922 285.097 103.323 282.384 103.323 276.127 L 103.323 249.277 C 103.323 247.947 105.206 247.062 106.867 247.062 C 108.696 247.062 110.466 247.947 110.466 249.277 L 110.466 258.797 L 117 258.797 C 118.162 258.797 118.824 260.127 118.824 261.402 C 118.824 262.727 118.162 264.002 117 264.002 L 110.466 264.002 L 110.466 276.127 Z " fill="rgb(0,0,0)"/><path d=" M 132.668 261.012 L 132.668 262.673 C 133.939 260.517 136.598 258.466 140.142 258.466 C 145.678 258.466 150.052 263.561 150.052 269.706 L 150.052 274.244 C 150.052 280.17 145.514 285.596 140.364 285.596 C 137.043 285.596 134.162 283.491 133.113 281.222 L 133.113 295.062 C 133.113 296.224 131.452 297.331 129.456 297.331 C 127.409 297.331 125.971 296.224 125.971 295.062 L 125.971 261.012 C 125.971 259.682 127.464 258.797 129.347 258.797 C 131.284 258.797 132.668 259.682 132.668 261.012 Z  M 142.91 269.706 C 142.91 267.214 140.641 264.723 137.873 264.723 C 135.549 264.723 133.113 266.602 133.113 269.706 L 133.113 275.242 C 133.113 276.404 135.16 279.339 137.982 279.339 C 140.586 279.339 142.91 276.793 142.91 274.244 L 142.91 269.706 Z " fill="rgb(0,0,0)"/><path d=" M 170.376 277.788 C 170.376 272.918 157.253 275.963 157.253 266.715 C 157.253 262.786 159.744 258.466 167.163 258.466 C 171.651 258.466 175.967 260.018 175.967 262.064 C 175.967 263.062 175.027 265.499 173.366 265.499 C 172.037 265.499 170.321 263.893 167.276 263.893 C 164.508 263.893 163.401 265.277 163.401 266.384 C 163.401 270.427 176.688 267.659 176.688 277.511 C 176.688 282.442 173.035 285.596 166.501 285.596 C 160.855 285.596 156.481 283.269 156.481 280.832 C 156.481 279.671 157.475 277.678 158.859 277.678 C 160.466 277.678 161.686 280.17 166.337 280.17 C 169.6 280.17 170.376 278.895 170.376 277.788 Z " fill="rgb(0,0,0)"/><path d=" M 191.362 265.499 C 191.362 267.491 189.647 269.261 187.655 269.261 C 185.495 269.261 183.889 267.491 183.889 265.499 C 183.889 263.448 185.495 261.733 187.655 261.733 C 189.647 261.733 191.362 263.448 191.362 265.499 Z  M 191.362 281.663 C 191.362 283.659 189.647 285.429 187.655 285.429 C 185.495 285.429 183.889 283.659 183.889 281.663 C 183.889 279.616 185.495 277.901 187.655 277.901 C 189.647 277.901 191.362 279.616 191.362 281.663 Z " fill="rgb(0,0,0)"/><path d=" M 222.976 244.903 C 222.976 245.234 222.922 245.565 222.754 245.897 L 202.879 286.096 C 202.489 286.867 201.604 287.312 200.719 287.312 C 199.113 287.312 198.06 286.041 198.06 284.875 C 198.06 284.544 198.173 284.212 198.337 283.936 L 218.212 243.573 C 218.602 242.797 219.378 242.411 220.208 242.411 C 221.538 242.411 222.976 243.406 222.976 244.903 Z " fill="rgb(0,0,0)"/><path d=" M 239.701 244.903 C 239.701 245.234 239.643 245.565 239.479 245.897 L 219.6 286.096 C 219.214 286.867 218.329 287.312 217.444 287.312 C 215.838 287.312 214.785 286.041 214.785 284.875 C 214.785 284.544 214.894 284.212 215.062 283.936 L 234.937 243.573 C 235.327 242.797 236.099 242.411 236.933 242.411 C 238.259 242.411 239.701 243.406 239.701 244.903 Z " fill="rgb(0,0,0)"/><path d=" M 271.705 284.431 C 271.315 285.374 270.099 285.706 268.883 285.706 C 267.499 285.706 266.278 285.261 265.947 284.431 L 261.682 272.361 L 257.475 284.376 C 257.144 285.261 255.814 285.706 254.43 285.706 C 253.269 285.706 252.048 285.374 251.662 284.376 L 243.136 262.509 C 242.914 262.064 242.859 261.733 242.859 261.456 C 242.859 259.741 245.627 258.521 247.51 258.521 C 248.45 258.521 249.28 258.906 249.557 259.682 L 255.093 275.405 L 259.245 261.729 C 259.635 260.458 260.575 260.29 261.682 260.29 C 262.734 260.29 263.732 260.458 264.118 261.729 L 268.216 275.46 L 273.807 259.682 C 274.083 258.961 274.859 258.521 275.857 258.521 C 277.627 258.521 280.454 259.737 280.454 261.511 C 280.454 261.842 280.399 262.228 280.231 262.509 L 271.705 284.431 Z " fill="rgb(0,0,0)"/><path d=" M 313.397 284.431 C 313.011 285.374 311.795 285.706 310.574 285.706 C 309.19 285.706 307.974 285.261 307.639 284.431 L 303.378 272.361 L 299.167 284.376 C 298.836 285.261 297.51 285.706 296.122 285.706 C 294.96 285.706 293.744 285.374 293.354 284.376 L 284.828 262.509 C 284.606 262.064 284.551 261.733 284.551 261.456 C 284.551 259.741 287.319 258.521 289.202 258.521 C 290.142 258.521 290.972 258.906 291.253 259.682 L 296.789 275.405 L 300.941 261.729 C 301.327 260.458 302.27 260.29 303.378 260.29 C 304.43 260.29 305.424 260.458 305.81 261.729 L 309.908 275.46 L 315.502 259.682 C 315.779 258.961 316.555 258.521 317.549 258.521 C 319.323 258.521 322.146 259.737 322.146 261.511 C 322.146 261.842 322.091 262.228 321.923 262.509 L 313.397 284.431 Z " fill="rgb(0,0,0)"/><path d=" M 355.093 284.431 C 354.707 285.374 353.491 285.706 352.27 285.706 C 350.886 285.706 349.67 285.261 349.335 284.431 L 345.073 272.361 L 340.863 284.376 C 340.532 285.261 339.202 285.706 337.818 285.706 C 336.656 285.706 335.44 285.374 335.05 284.376 L 326.524 262.509 C 326.302 262.064 326.247 261.733 326.247 261.456 C 326.247 259.741 329.015 258.521 330.898 258.521 C 331.838 258.521 332.668 258.906 332.949 259.682 L 338.485 275.405 L 342.637 261.729 C 343.023 260.458 343.962 260.29 345.07 260.29 C 346.122 260.29 347.12 260.458 347.506 261.729 L 351.604 275.46 L 357.198 259.682 C 357.471 258.961 358.251 258.521 359.245 258.521 C 361.015 258.521 363.841 259.737 363.841 261.511 C 363.841 261.842 363.787 262.228 363.619 262.509 L 355.093 284.431 Z " fill="rgb(0,0,0)"/></g></g></svg>